<?xml version="1.0" encoding="utf-8"?>
<!-- Generator: Adobe Illustrator 27.5.0, SVG Export Plug-In . SVG Version: 6.00 Build 0)  -->
<svg version="1.1" id="_x3C_Layer_x3E_" xmlns="http://www.w3.org/2000/svg" xmlns:xlink="http://www.w3.org/1999/xlink" x="0px"
	 y="0px" viewBox="0 0 2760 1840" style="enable-background:new 0 0 2760 1840;" xml:space="preserve">
<rect style="fill:#FFFFFF;" width="2760" height="1840"/>
<g>
	<g>
		<path style="fill:#DAEBE8;" d="M2311.41,1677.429c-207.544,24.714-421.366,14.416-858.263-11.444
			c-245.327-14.521-738.595,9.538-984.809,11.444c-179.502,1.39-325.03-126.085-325.03-281.619V921.407V425.846
			c0-155.534,145.832-290.768,325.03-281.619c166.415,8.496,411.19,42.131,666.351,21.536
			c303.476-24.495,879.493-45.309,1176.721-21.536c178.749,14.297,325.03,126.085,325.03,281.619v969.964
			C2636.439,1551.344,2489.247,1656.253,2311.41,1677.429z"/>
	</g>
	<g>
		<ellipse style="fill:#B8D5DC;" cx="1378.119" cy="1426.845" rx="1077.52" ry="120.334"/>
	</g>
	<g style="opacity:0.6;">
		<path style="fill:#ACC9C5;" d="M1901.812,1166.764c0,0,114.539-482.181,244.21-446.185
			c129.671,35.995-148.342,306.098-177.238,447.52L1901.812,1166.764z"/>
	</g>
	<g>
		<g>
			<path style="fill:#CCD39C;" d="M1911.081,1073.769c0,0,291.142-362.866,407.977-275.533
				c116.836,87.333-260.643,197.391-341.325,305.866L1911.081,1073.769z"/>
		</g>
		<g>
			<g>
				<path style="fill:#C2C68E;" d="M1948.217,1091.066c54.357-75.928,139.064-139.094,200.55-178.713
					c66.66-42.951,121.117-68.233,121.659-68.483l-1.564-3.387c-0.544,0.251-55.239,25.642-122.116,68.734
					c-61.76,39.795-146.863,103.271-201.562,179.677L1948.217,1091.066z"/>
			</g>
		</g>
	</g>
	<g>
		<g>
			<g>
				<path style="fill:#ACC9C5;" d="M2374.966,1277.044c-68.114,11.046-62.265,113.582-138.023,90.647
					c-75.76-22.98-90.374-22.156-107.802,3.846c0,0-16.062,31.469-46.867,35.225c-121.544,14.822-276.881-171.915-146.09-263.483
					c9.444-6.612,22.795-8.648,37.537-10.173c79.965-8.219,102.771,29.484,170.152-60.713
					c67.402-90.221,145.185,48.266,198.624,46.337c53.438-1.93,101.15-15.425,139.643,43.111
					C2520.635,1220.424,2443.082,1266.044,2374.966,1277.044z"/>
			</g>
		</g>
		<g style="opacity:0.5;">
			<g>
				<g>
					<path style="fill:#68A1BF;" d="M1967.764,1274.87l-2.332-3.892c1.714-1.029,175.719-102.799,525.416-92.631l-0.132,4.538
						C2142.333,1172.757,1969.472,1273.848,1967.764,1274.87z"/>
				</g>
			</g>
			<g>
				<g>
					<path style="fill:#68A1BF;" d="M2192.152,1151.4c-43.893-43.88-50.272-77.22-50.522-78.616l4.467-0.803
						c0.059,0.329,6.494,33.451,49.266,76.21L2192.152,1151.4z"/>
				</g>
			</g>
			<g>
				<g>
					<path style="fill:#68A1BF;" d="M2197.564,1200.715c-11.744-23.491-8.793-56.299,8.532-94.876
						c12.974-28.89,29.627-51.206,29.793-51.427l3.629,2.723c-0.652,0.869-64.898,87.539-37.893,141.554L2197.564,1200.715z"/>
				</g>
			</g>
			<g>
				<g>
					<path style="fill:#68A1BF;" d="M2289.899,1197.659c-5.241-4.876-8.049-8.014-8.176-8.158l3.406-2.997
						c0.585,0.666,59.77,66.683,152.125,68.746l-0.102,4.535C2362.735,1258.123,2309.428,1215.827,2289.899,1197.659z"/>
				</g>
			</g>
			<g>
				<g>
					<path style="fill:#68A1BF;" d="M2329.691,1304.84c-19.81-24.582-24.583-48.358-25.098-63.974
						c-0.561-16.998,3.567-28.063,3.741-28.526l4.244,1.612c-0.16,0.425-15.624,43.035,20.648,88.043L2329.691,1304.84z"/>
				</g>
			</g>
		</g>
	</g>
	<g style="opacity:0.6;">
		<path style="fill:#ACC9C5;" d="M2297.974,1004.565c18.604,0.454,23.993,6.5,23.815,13.792
			c-0.178,7.292-5.856,13.068-24.459,12.614c-33.89-0.827-49.947-14.429-49.947-14.429S2263.591,1003.726,2297.974,1004.565z"/>
	</g>
	<g style="opacity:0.6;">
		<path style="fill:#ACC9C5;" d="M2266.686,958.428c12.486-12.268,20.098-11.949,24.906-7.055c4.808,4.894,4.992,12.51-7.494,24.778
			c-22.745,22.347-42.445,24.286-42.445,24.286S2243.61,981.1,2266.686,958.428z"/>
	</g>
	<g style="opacity:0.6;">
		<path style="fill:#FFFFFF;" d="M1958.572,438.946c0,0-22.156-42.613-78.22-37.274c-56.064,5.34-49.39,48.055-76.087,44.05
			c-26.697-4.005-64.073,0-72.082,26.697c-8.009,26.697-44.05,12.014-45.385,34.706c-1.335,22.693,41.381,38.711,90.77,18.688
			c49.39-20.023,73.417,15.555,142.83,9.112c69.413-6.443,78.012-14.452,119.098-10.447c41.085,4.005,40.11-24.126,21.421-42.815
			C2042.227,462.975,1966.581,464.755,1958.572,438.946z"/>
	</g>
	<g style="opacity:0.4;">
		<path style="fill:#FFFFFF;" d="M1659.711,355.662c0,0-14.086-27.092-49.729-23.698c-35.643,3.395-31.4,30.552-48.373,28.006
			c-16.973-2.546-40.735,0-45.827,16.973c-5.092,16.973-28.005,7.638-28.854,22.065c-0.849,14.427,26.308,24.611,57.708,11.881
			c31.4-12.73,46.676,9.889,90.806,5.793c44.13-4.096,49.597-9.188,75.718-6.642c26.12,2.546,25.5-15.339,13.619-27.22
			C1712.896,370.939,1664.803,372.07,1659.711,355.662z"/>
	</g>
	<g style="opacity:0.6;">
		<path style="fill:#FFFFFF;" d="M1096.206,436.878c0,0-27.756-48.074-78.534-40.175c-50.779,7.899-1.128,29.572-67.705,40.175
			c-66.576,10.603-81.246,33.171-50.779,51.226c30.467,18.055,80.117-32.724,134.281-7.899
			C1087.634,505.03,1160.071,483.823,1096.206,436.878z"/>
	</g>
	<g>
		<g>
			<g>
				<path style="fill:#ACC9C5;" d="M845.327,617.466c-12.5,11.307-19.811,10.698-24.243,5.799c-4.432-4.9-4.306-12.235,8.194-23.542
					c22.771-20.597,41.801-21.681,41.801-21.681S868.43,596.569,845.327,617.466z"/>
			</g>
			<g>
				<g>
					<g>
						<path style="fill:#ACC9C5;" d="M917.931,1004.26l-3.17,0.374c-0.058-0.487-6.15-49.619-37.064-117.029
							c-28.526-62.197-84.624-153.124-189.888-233.082l1.929-2.541c105.845,80.399,162.242,171.857,190.916,234.424
							C911.746,954.241,917.872,1003.766,917.931,1004.26z"/>
					</g>
				</g>
				<g>
					<g>
						<path style="fill:#ACC9C5;" d="M799.012,757.835l-2.98-1.138c41.37-108.216-19.549-216.562-20.169-217.644l2.767-1.587
							C779.257,538.56,840.932,648.18,799.012,757.835z"/>
					</g>
				</g>
				<g>
					<g>
						<path style="fill:#ACC9C5;" d="M741.462,716.907c-31.729,6.58-59.002-4.333-59.314-4.462l1.208-2.951
							c0.347,0.142,35.288,14.079,71.526,0.174l1.143,2.978C751.125,714.527,746.24,715.916,741.462,716.907z"/>
					</g>
				</g>
				<g>
					<g>
						<path style="fill:#ACC9C5;" d="M682.112,637.538c19.618,11.481,22.749,19.518,19.412,25.22
							c-3.337,5.702-11.877,6.909-31.496-4.571c-35.738-20.914-46.969-41.346-46.969-41.346S645.853,616.32,682.112,637.538z"/>
					</g>
				</g>
				<g>
					<g>
						<path style="fill:#ACC9C5;" d="M688.432,700.609c22.167,5.031,27.575,11.751,26.113,18.193
							c-1.462,6.443-9.241,10.169-31.408,5.138c-40.38-9.165-57.249-25.26-57.249-25.26S647.463,691.31,688.432,700.609z"/>
					</g>
				</g>
				<g>
					<g>
						<path style="fill:#ACC9C5;" d="M763.092,660.523c7.096,15.289,4.349,22.091-1.643,24.873
							c-5.992,2.781-12.961,0.489-20.058-14.8c-12.927-27.851-8.325-46.348-8.325-46.348S749.977,632.266,763.092,660.523z"/>
					</g>
				</g>
				<g>
					<g>
						<path style="fill:#ACC9C5;" d="M782.591,523.446c9.675,20.569,7.707,28.967,1.729,31.779
							c-5.978,2.812-13.702-1.027-23.378-21.595c-17.625-37.469-15.319-60.67-15.319-60.67S764.709,485.431,782.591,523.446z"/>
					</g>
				</g>
			</g>
		</g>
	</g>
	<g>
		<path style="fill:#ACC9C5;" d="M1002.602,1273.027c0,0-119.76-513.575-257.896-475.843s156.501,326.359,186.627,476.969
			L1002.602,1273.027z"/>
	</g>
	<g>
		<g>
			<path style="fill:#92BCB5;" d="M920.29,1179.602c0,0-228.118-398.3-355.38-331.097
				c-127.262,67.203,223.765,232.347,285.767,350.44L920.29,1179.602z"/>
		</g>
		<g>
			<g>
				<path style="fill:#68A1BF;" d="M881.444,1190.765c-41.336-82.336-114.209-156.887-168.061-204.929
					C655,933.754,605.801,900.765,605.311,900.437l2.044-3.061c0.492,0.328,49.906,33.461,108.479,85.714
					c54.092,48.255,127.303,123.169,168.899,206.023L881.444,1190.765z"/>
			</g>
		</g>
	</g>
	<g>
		<g>
			<g>
				<path style="fill:#CCD39C;" d="M429.43,1177.92c67.104,28.349,35.486,132.056,118.92,127.461
					c70.672-3.931,77.441-9.088,97.18,14.86c6.443,7.817,11.911,16.5,15.798,25.855c4.823,11.608,15.463,30.304,35.902,38.004
					c120.964,45.57,326.947-107.152,215.674-233.75c-8.035-9.142-21.219-14.566-35.959-19.813
					c-79.966-28.41-112.778,4.564-159.353-104.785c-46.592-109.379-160.974,13.232-215.303-2.099
					c-54.329-15.331-99.895-41.093-154.002,9.328C294.165,1083.45,362.313,1149.619,429.43,1177.92z"/>
			</g>
		</g>
		<g>
			<g>
				<g>
					<path style="fill:#C2C68E;" d="M847.635,1277.43l3.364-3.41c-1.501-1.484-154.548-149.343-515.769-226.286l-0.999,4.688
						C694.096,1129.078,846.139,1275.955,847.635,1277.43z"/>
				</g>
			</g>
			<g>
				<g>
					<path style="fill:#C2C68E;" d="M648.333,1094.725c55.983-34.04,70.857-66.643,71.462-68.013l-4.381-1.939
						c-0.143,0.323-15.019,32.688-69.573,65.859L648.333,1094.725z"/>
				</g>
			</g>
			<g>
				<g>
					<path style="fill:#C2C68E;" d="M630.46,1143.955c17.915-21.16,23.085-55.548,14.953-99.445
						c-6.089-32.874-17.594-59.924-17.71-60.192l-4.402,1.886c0.451,1.054,44.694,106.003,3.499,154.658L630.46,1143.955z"/>
				</g>
			</g>
			<g>
				<g>
					<path style="fill:#C2C68E;" d="M536.516,1117.75c6.594-3.692,10.258-6.209,10.424-6.325l-2.745-3.925
						c-0.767,0.537-77.966,53.463-173.209,32.503l-1.028,4.677C446.703,1161.569,511.947,1131.505,536.516,1117.75z"/>
				</g>
			</g>
			<g>
				<g>
					<path style="fill:#C2C68E;" d="M468.923,1217.743c26.461-20.264,37.297-43.458,41.727-59.347
						c4.822-17.295,3.354-29.675,3.29-30.194l-4.756,0.593c0.058,0.476,5.273,48.044-43.176,85.145L468.923,1217.743z"/>
				</g>
			</g>
		</g>
	</g>
	<g>
		<path style="fill:#5C305D;" d="M1986.366,1392.834l-1096.111-12.578c-23.465-0.269-42.346-19.368-42.346-42.834V668.415
			c0-23.403,18.781-42.474,42.181-42.832l1081.972-16.568c23.573-0.361,43.007,18.394,43.484,41.965l14.14,698.153
			C2030.175,1373.318,2010.555,1393.111,1986.366,1392.834z"/>
	</g>
	<g>
		<path style="fill:#A9CAEC;" d="M1950.281,1260.15H914.403c-12.688,0-22.974-10.286-22.974-22.974v-537.8
			c0-12.688,10.286-22.974,22.974-22.974h1035.878c12.688,0,22.974,10.286,22.974,22.974v537.8
			C1973.255,1249.864,1962.969,1260.15,1950.281,1260.15z"/>
	</g>
	<g>
		<polygon style="fill:#764678;" points="874.053,1295.891 563.426,1392.859 2303.319,1395.386 2028.607,1295.891 		"/>
	</g>
	<g>
		<path style="fill:#331832;" d="M548.156,1407.174v17.667c0,7.906,6.826,14.315,15.246,14.315H2288.46
			c15.998,0,29.181-11.788,29.962-26.791l0.102-1.965c0.425-8.162-6.501-15.002-15.204-15.014l-1739.893-2.527
			C554.996,1392.847,548.156,1399.259,548.156,1407.174z"/>
	</g>
	<g>
		<g>
			
				<ellipse transform="matrix(0.2298 -0.9732 0.9732 0.2298 457.2825 1872.877)" style="fill:#331832;" cx="1411.881" cy="647.538" rx="12.568" ry="12.568"/>
		</g>
	</g>
	<g>
		<path style="fill:#366F90;" d="M1617.59,1209.187H976.517c-17.148,0-31.048-13.901-31.048-31.049V758.822
			c0-17.148,13.901-31.048,31.048-31.048h641.073c17.148,0,31.048,13.901,31.048,31.048v419.316
			C1648.638,1195.286,1634.737,1209.187,1617.59,1209.187z"/>
	</g>
	<g>
		<path style="fill:#366F90;" d="M1904.914,1209.187H1703.08c-9.975,0-18.062-8.087-18.062-18.062V745.835
			c0-9.975,8.086-18.062,18.062-18.062h201.834c9.975,0,18.062,8.087,18.062,18.062v445.289
			C1922.976,1201.1,1914.89,1209.187,1904.914,1209.187z"/>
	</g>
	<g>
		<rect x="978.958" y="760.854" style="fill:#EF8062;" width="237.387" height="12.967"/>
	</g>
	<g>
		<rect x="978.958" y="864.776" style="fill:#8FB3E3;" width="257.451" height="12.967"/>
	</g>
	<g>
		<rect x="978.958" y="979.896" style="fill:#EF8062;" width="175.297" height="12.967"/>
	</g>
	<g>
		<rect x="1170.477" y="979.896" style="fill:#8FB3E3;" width="175.297" height="12.967"/>
	</g>
	<g>
		<rect x="1014.328" y="1104.531" style="fill:#5C305D;" width="257.451" height="12.967"/>
	</g>
	<g>
		<rect x="1098.43" y="1136.092" style="fill:#92BCB5;" width="257.451" height="12.967"/>
	</g>
	<g>
		<rect x="1085.183" y="1011.293" style="fill:#92BCB5;" width="170.588" height="12.967"/>
	</g>
	<g>
		<rect x="1274.137" y="1011.293" style="fill:#92BCB5;" width="113.339" height="12.967"/>
	</g>
	<g>
		<rect x="1163.213" y="1038.503" style="fill:#92BCB5;" width="146.392" height="12.967"/>
	</g>
	<g>
		<rect x="1090.187" y="900.61" style="fill:#92BCB5;" width="124.576" height="12.967"/>
	</g>
	<g>
		<rect x="1138.034" y="927.882" style="fill:#8FB3E3;" width="209.31" height="12.967"/>
	</g>
	<g>
		<rect x="1234.343" y="900.61" style="fill:#92BCB5;" width="99.118" height="12.967"/>
	</g>
	<g>
		<g>
			<rect x="1720.848" y="760.854" style="fill:#5C305D;" width="91.814" height="6.484"/>
		</g>
		<g>
			<rect x="1720.848" y="799.756" style="fill:#92BCB5;" width="59.252" height="6.484"/>
		</g>
		<g>
			<rect x="1790.182" y="799.756" style="fill:#92BCB5;" width="69.163" height="6.484"/>
		</g>
		<g>
			<rect x="1831.543" y="760.854" style="fill:#92BCB5;" width="55.604" height="6.484"/>
		</g>
		<g>
			<rect x="1720.848" y="780.305" style="fill:#92BCB5;" width="132.286" height="6.484"/>
		</g>
	</g>
	<g>
		<g>
			<rect x="1720.848" y="848.567" style="fill:#EF8062;" width="91.814" height="6.484"/>
		</g>
		<g>
			<rect x="1720.848" y="887.469" style="fill:#92BCB5;" width="59.252" height="6.484"/>
		</g>
		<g>
			<rect x="1790.182" y="887.469" style="fill:#92BCB5;" width="69.163" height="6.484"/>
		</g>
		<g>
			<rect x="1831.543" y="848.567" style="fill:#92BCB5;" width="55.604" height="6.484"/>
		</g>
		<g>
			<rect x="1720.848" y="868.018" style="fill:#92BCB5;" width="132.286" height="6.484"/>
		</g>
	</g>
	<g>
		<g>
			<rect x="1720.848" y="936.279" style="fill:#8FB3E3;" width="91.814" height="6.484"/>
		</g>
		<g>
			<rect x="1720.848" y="975.181" style="fill:#92BCB5;" width="59.252" height="6.484"/>
		</g>
		<g>
			<rect x="1790.182" y="975.181" style="fill:#92BCB5;" width="69.163" height="6.484"/>
		</g>
		<g>
			<rect x="1831.543" y="936.279" style="fill:#92BCB5;" width="55.604" height="6.484"/>
		</g>
		<g>
			<rect x="1720.848" y="955.73" style="fill:#92BCB5;" width="132.286" height="6.484"/>
		</g>
	</g>
	<g>
		<g>
			<rect x="1720.848" y="1022.294" style="fill:#EF8062;" width="91.814" height="6.484"/>
		</g>
		<g>
			<rect x="1720.848" y="1061.196" style="fill:#92BCB5;" width="59.252" height="6.484"/>
		</g>
		<g>
			<rect x="1790.182" y="1061.196" style="fill:#92BCB5;" width="69.163" height="6.484"/>
		</g>
		<g>
			<rect x="1831.543" y="1022.294" style="fill:#92BCB5;" width="55.604" height="6.484"/>
		</g>
		<g>
			<rect x="1720.848" y="1041.745" style="fill:#92BCB5;" width="132.286" height="6.484"/>
		</g>
	</g>
	<g>
		<g>
			<rect x="1720.848" y="1100.336" style="fill:#92BCB5;" width="91.814" height="6.484"/>
		</g>
		<g>
			<rect x="1720.848" y="1139.238" style="fill:#92BCB5;" width="59.252" height="6.484"/>
		</g>
		<g>
			<rect x="1790.182" y="1139.238" style="fill:#92BCB5;" width="69.163" height="6.484"/>
		</g>
		<g>
			<rect x="1831.543" y="1100.336" style="fill:#92BCB5;" width="55.604" height="6.484"/>
		</g>
		<g>
			<rect x="1720.848" y="1119.787" style="fill:#92BCB5;" width="132.286" height="6.484"/>
		</g>
	</g>
	<g>
		<rect x="1351.466" y="900.61" style="fill:#EF8062;" width="100.47" height="12.967"/>
	</g>
	<g>
		<rect x="1075.125" y="801.67" style="fill:#DAEBE8;" width="257.451" height="12.967"/>
	</g>
	<g>
		<rect x="1355.882" y="801.67" style="fill:#8FB3E3;" width="177.686" height="12.967"/>
	</g>
	<g>
		<rect x="1424.449" y="760.854" style="fill:#DAEBE8;" width="148.379" height="12.967"/>
	</g>
	<g>
		<g>
			<path style="fill:#331832;" d="M1264.696,743.851c0,0-2.561,16.704-9.375,25.219c-4.492,5.613-16.882,16.729-8.071,20.434
				c7.037,2.958,20.589-10.212,24.988-13.489c4.399-3.277,11.033-9.478,9.562-14.763c-3.048-10.947-2.043-24.709-2.043-24.709
				L1264.696,743.851z"/>
		</g>
		<g>
			<path style="fill:#331832;" d="M1298.723,730.896c0,0,3.407,16.552-0.022,26.905c-2.26,6.824-10.013,21.555-0.463,21.965
				c7.627,0.327,15.754-16.734,18.739-21.335c2.986-4.602,7.049-12.723,3.833-17.166c-6.664-9.205-10.507-22.458-10.507-22.458
				L1298.723,730.896z"/>
		</g>
		<g>
			<g>
				<path style="fill:#EF8062;" d="M1293.948,742.593c-91.35-60.934-86.839-114.316-74.179-135.192
					c14.702-24.245,37.981-43.415,73.658-51.967c9.512-2.28,18.566-3.599,26.131-4.357c10.955-1.099,20.392,7.651,20.102,18.657
					l-0.819,31.089l0.07,0.002c-15.241-0.319-61.483,4.328-73.598,28.969c-2.518,5.122,58.973,77.345,56.678,90.304
					C1319.393,734.758,1302.88,748.551,1293.948,742.593z"/>
			</g>
		</g>
		<g>
			<g>
				<path style="fill:#EF8062;" d="M1258.528,751.719c-10.505,0.052-18.884-8.772-18.264-19.259
					c1.377-23.315,5.709-62.996,19.286-92.976c7.7-17.003,19.942-32.463,36.386-45.95c12.399-10.17,27.239-19.259,44.107-27.015
					c28.055-12.9,48.262-11.101,48.262-11.101l15.333,22.609c-0.203,0.041,4.301,22.807-28.114,43.107
					c-17.884,11.2-53.837,18.044-68.628,46.991c-10.559,20.664-14.594,48.063-15.936,67.21c-0.642,9.159-8.249,16.263-17.43,16.308
					L1258.528,751.719z"/>
			</g>
		</g>
		<g>
			<path style="fill:#FFB27D;" d="M1279.39,475.281c0,0-18.841,28.988-25.591,71.96c-4.467,28.436,47.282-4.669,47.282-4.669
				l2.302-59.402L1279.39,475.281z"/>
		</g>
		<g>
			<path style="fill:#92BCB5;" d="M1373.578,458.897c0,0-14.351-24.531-47.434-17.003c-33.082,7.528-46.561,41.317-48.931,122.461
				c0,0,19.868,35.157,110.246,28.303c10.013-0.759,24.363-2.083,19.469-18.321C1397.832,544.155,1389.02,483.952,1373.578,458.897z
				"/>
		</g>
		<g>
			<path style="fill:#92BCB5;" d="M1409.971,466.06l-34.029,6.396c0,0-59.505,17.598-76.163,17.737
				c-16.658,0.139-23.552-12.044-23.552-12.044s13.435-22.805,41.593-33.564c2.645-1.015,5.416-1.918,8.322-2.689
				c4.877-1.291,9.835-2.421,14.797-2.478C1397.11,438.773,1409.971,466.06,1409.971,466.06z"/>
		</g>
		<g>
			<path style="fill:#331832;" d="M1409.971,466.06c0.736,2.683-6.397,7.159-15.932,9.998c-9.535,2.839-17.862,2.966-18.598,0.284
				c-0.736-2.683,6.397-7.159,15.932-9.998C1400.908,463.505,1409.235,463.378,1409.971,466.06z"/>
		</g>
		<g>
			<g>
				<path style="fill:#FFB27D;" d="M1404.094,541.626c-14.534,22.773-43.325,37.31-73.578,36.357l3.224-24.272
					c23.458-4.275,41.442-19.542,44.791-32.411c4.209-16.17,2.765-31.923,0.754-43.761c-0.191-1.123,0.252-2.253,1.156-2.945
					c2.999-2.298,10.771-6.968,24.657-7.243c1.236-0.025,2.33,0.804,2.647,1.999
					C1413.555,491.232,1417.063,521.304,1404.094,541.626z"/>
			</g>
		</g>
		<g style="opacity:0.3;">
			<path style="fill:#EC865C;" d="M1388.785,549.091c-0.533,0-1.048-0.104-1.535-0.312c-2.545-1.087-3.44-4.755-1.995-8.178
				c0.827-1.957,2.307-3.524,3.96-4.192c1.139-0.46,2.276-0.476,3.282-0.045c2.545,1.087,3.44,4.755,1.995,8.178l0,0
				c-0.828,1.958-2.308,3.525-3.961,4.193C1389.942,548.972,1389.355,549.091,1388.785,549.091z M1390.962,537.172
				c-0.428,0-0.875,0.091-1.328,0.274c-1.384,0.559-2.636,1.901-3.349,3.591c-1.207,2.857-0.577,5.869,1.403,6.715
				c0.729,0.311,1.567,0.292,2.425-0.053c1.384-0.559,2.636-1.901,3.35-3.591l0,0c1.207-2.857,0.576-5.869-1.404-6.715
				C1391.715,537.245,1391.345,537.172,1390.962,537.172z"/>
		</g>
		<g>
			<g>
				<path style="fill:#FFB27D;" d="M1333.74,553.711c0,0-21.728-6.91-28.635-3.642c-6.906,3.268-13.258,12.665-8.546,11.548
					c4.711-1.117,10.337-4.207,10.337-4.207s-11.709,7.167-8.847,9.179c2.862,2.012,12.985-4.319,12.985-4.319
					s-13.253,9.638-9.934,10.664c3.319,1.026,13.335-6.368,13.335-6.368s-11.973,9.46-8.089,10.561
					c3.883,1.101,9.843-7.882,12.705-5.87c2.862,2.012,10.163,11.254,16.728,3.982L1333.74,553.711z"/>
			</g>
			<g>
				<path style="fill:#E9845C;" d="M1307.077,557.626l-0.363-0.432c0.128-0.108,3.16-2.628,5.584-1.939l-0.155,0.543
					C1310.013,555.189,1307.106,557.602,1307.077,557.626z"/>
			</g>
			<g>
				<path style="fill:#E9845C;" d="M1311.219,562.483l-0.37-0.425c0.122-0.106,3.031-2.602,6.566-2.318l-0.044,0.562
					C1314.068,560.038,1311.248,562.46,1311.219,562.483z"/>
			</g>
			<g>
				<path style="fill:#E9845C;" d="M1314.617,566.783l-0.363-0.431c0.152-0.127,3.737-3.114,6.253-2.161l-0.2,0.527
					C1318.103,563.887,1314.652,566.754,1314.617,566.783z"/>
			</g>
		</g>
		<g>
			<g>
				<path style="fill:#331832;" d="M1307.05,587.517h-69.751c-1.46,0-2.757-0.929-3.218-2.305l-14.495-43.288
					c-0.73-2.18,0.904-4.43,3.218-4.43h67.077c3.057,0,5.77,1.944,6.735,4.824l13.651,40.769
					C1310.998,585.267,1309.363,587.517,1307.05,587.517z"/>
			</g>
			<g>
				<path style="fill:#331832;" d="M1302.672,587.517h-69.751c-1.46,0-2.757-0.929-3.218-2.305l-14.495-43.288
					c-0.73-2.18,0.904-4.43,3.218-4.43h67.077c3.057,0,5.77,1.944,6.735,4.824l13.651,40.769
					C1306.62,585.267,1304.985,587.517,1302.672,587.517z"/>
			</g>
			<g>
				<path style="fill:#DAEBE8;" d="M1253.799,561.089c0-1.643,1.896-2.313,3.551-2.313s4.357,1.804,4.34,4.107
					c-0.018,2.485-1.961,2.808-3.615,2.808S1253.799,563.181,1253.799,561.089z"/>
			</g>
			<g>
				<path style="fill:#331832;" d="M1328.315,581.4h-95.429v6.117h97.423c1.139,0,2.061-0.923,2.061-2.061l0,0
					C1332.371,583.216,1330.555,581.4,1328.315,581.4z"/>
			</g>
			<g>
				<path style="fill:#366F90;" d="M1297.713,559.379c-0.035-0.129-3.457-12.962-5.673-16.95c-2.176-3.916-4.875-4.708-4.902-4.716
					l0.121-0.437c0.117,0.032,2.902,0.837,5.178,4.932c2.243,4.038,5.573,16.525,5.714,17.055L1297.713,559.379z"/>
			</g>
			<g>
				<path style="fill:#366F90;" d="M1308.021,581.626c-2.586,0-3.229-1.143-3.255-1.192l-5.451-16.271l0.429-0.144l5.436,16.235
					c0,0,0-0.001,0-0.001c0.006,0,0.59,0.919,2.841,0.919V581.626z"/>
			</g>
		</g>
		<g>
			<path style="fill:#020202;" d="M1243.732,700.302l-0.562-0.038c0.014-0.208,1.47-21.075,7.919-44.67
				c5.96-21.802,17.525-50.459,38.777-63.179l0.289,0.484c-21.091,12.623-32.59,41.141-38.522,62.843
				C1245.198,679.284,1243.746,700.095,1243.732,700.302z"/>
		</g>
		<g>
			<path style="fill:#020202;" d="M1290.293,739.932l-0.564-0.003c0.23-32.466,10.849-57.529,10.956-57.778l0.518,0.223
				C1301.097,682.622,1290.522,707.586,1290.293,739.932z"/>
		</g>
		<g>
			<path style="fill:#331832;" d="M1312.257,443.525c0,0,7.731-3.975,8.57-8.572c0.839-4.596,3.954-3.501,5.567-4.812
				c1.613-1.311-4.36-13.023-4.36-13.023l-17.221-4.508l3.743,21.188L1312.257,443.525z"/>
		</g>
		<g>
			<path style="fill:#FFB27D;" d="M1347.045,439.463c-3.596-0.044-6.9-1.985-8.627-5.14l-5.413-9.884l-1.57-2.869l-9.236-16.867
				l3.038,18.099l1.825,10.863l0.52,3.097c0.424,2.527-1.141,4.946-3.609,5.635l-0.043,0.012c-1.14,2.318-2.579,6.948,3.148,8.19
				c6.73,1.461,16.809-4.682,20.024-11.136C1347.083,439.464,1347.064,439.464,1347.045,439.463z"/>
		</g>
		<g>
			<path style="fill:#E1986C;" d="M1332.996,424.136c0.006,0.101,0.01,0.202,0.01,0.303c0.122,5.916-5.902,9.255-5.902,9.255
				l-0.041-0.029l-1.825-10.863c1.854-0.886,4.522-1.868,6.198-1.232C1332.311,421.904,1332.915,422.678,1332.996,424.136z"/>
		</g>
		<g>
			
				<ellipse transform="matrix(0.9955 -0.0943 0.0943 0.9955 -32.5468 126.4026)" style="fill:#FFB27D;" cx="1321.648" cy="407.696" rx="17.198" ry="21.218"/>
		</g>
		<g>
			<path style="fill:#FFFFFF;" d="M1313.722,422.238c0,0,5.861-0.419,11.516-3.027c0,0,1.032,5.718-5.266,6.704
				C1316.308,426.489,1313.722,422.238,1313.722,422.238z"/>
		</g>
		<g>
			<g>
				<path style="fill:#080435;" d="M1320.011,408.057c-0.117-0.02-0.223-0.093-0.281-0.207c-0.099-0.192-0.024-0.427,0.168-0.526
					c0.113-0.058,2.606-1.654,5.148,0.647c0.16,0.145,0.18,0.389,0.038,0.552c-0.142,0.163-0.362,0.142-0.552,0.038
					c-1.902-1.033-4.182-0.589-4.276-0.541C1320.178,408.06,1320.092,408.071,1320.011,408.057z"/>
			</g>
		</g>
		<g>
			<path style="fill:#080435;" d="M1324.303,411.769c0.118,0.926-0.332,1.746-1.004,1.831c-0.672,0.085-1.312-0.596-1.43-1.522
				c-0.117-0.926,0.332-1.746,1.004-1.831S1324.186,410.843,1324.303,411.769z"/>
		</g>
		<g>
			<path style="fill:#080435;" d="M1313.29,413.551c0.176,0.917-0.22,1.764-0.885,1.892c-0.665,0.128-1.347-0.511-1.524-1.428
				c-0.176-0.917,0.22-1.764,0.885-1.892C1312.432,411.995,1313.114,412.635,1313.29,413.551z"/>
		</g>
		<g>
			<path style="fill:#331832;" d="M1328.676,393.383c-12.804,4.368-20.983,16.98-20.125,30.481c0.05,0.784,0.113,1.588,0.192,2.414
				c0,0,9.039,1.126,10.335,9.769c0.406,2.709-7.021,8.092-7.591,7.9c-4.297-1.446-16.009-10.465-15.456-30.617
				c0.553-20.152,6.892-35.519,25.129-37.862c18.237-2.342,16.953,10.086,16.953,10.086S1335.397,391.09,1328.676,393.383z"/>
		</g>
		<g>
			<path style="fill:#331832;" d="M1326.113,393.663c0,0,0.329,0.171,0.868,0.512c2.078,1.316,7.274,5.164,8.729,11.5
				c1.832,7.979-5.467,13.747-2.741,19.795c2.726,6.049,7.703-1.498,12.378-0.864c4.675,0.634,7.827-1.818,7.266-10.994
				c-0.561-9.176-4.716-30.318-15.541-29.294L1326.113,393.663z"/>
		</g>
		<g>
			<path style="fill:#FFB27D;" d="M1338.75,409.292c-1.764,2.035-4.458,2.482-6.017,0.997c-1.559-1.485-1.393-4.338,0.371-6.374
				c1.764-2.035,4.458-2.482,6.017-0.997C1340.68,404.403,1340.514,407.256,1338.75,409.292z"/>
		</g>
		<g>
			<path style="fill:#FFFFFF;" d="M1305.123,434.447c-0.097,0-0.184-0.069-0.203-0.168c-2.514-13.09,1.029-26.353,5.655-33.691
				c3.774-5.986,7.997-8.627,10.876-9.789c3.133-1.265,5.343-1.107,5.436-1.098c0.114,0.009,0.198,0.109,0.189,0.222
				c-0.009,0.114-0.113,0.195-0.222,0.19c-0.086-0.002-8.839-0.549-15.928,10.696c-4.583,7.269-8.092,20.413-5.599,33.392
				c0.021,0.112-0.052,0.221-0.164,0.243C1305.149,434.446,1305.136,434.447,1305.123,434.447z"/>
		</g>
		<g>
			<path style="fill:#FFFFFF;" d="M1344.812,417.532c-0.024,0-0.048-0.004-0.071-0.013c-0.107-0.039-0.163-0.158-0.124-0.266
				c3.247-8.894-0.207-23.431-4.016-27.502c-3.722-3.976-8.676-1.265-8.884-1.147c-0.102,0.056-0.226,0.019-0.282-0.079
				c-0.056-0.1-0.021-0.226,0.079-0.282c0.053-0.03,5.444-2.99,9.389,1.225c3.875,4.141,7.396,18.906,4.103,27.927
				C1344.976,417.48,1344.897,417.532,1344.812,417.532z"/>
		</g>
		<g>
			<path style="fill:#FFFFFF;" d="M1302.426,418.263c-0.111,0-0.203-0.088-0.207-0.199c-0.002-0.062-0.221-6.331,0.734-13.155
				c1.288-9.206,3.981-14.986,8.005-17.181c4.989-2.72,9.504-2.69,12.416-2.185c3.157,0.548,5.104,1.724,5.186,1.774
				c0.098,0.06,0.128,0.187,0.068,0.284c-0.059,0.097-0.186,0.13-0.284,0.069c-0.078-0.047-7.854-4.668-17.187,0.422
				c-9.336,5.091-8.533,29.709-8.523,29.957c0.004,0.114-0.085,0.21-0.2,0.215C1302.431,418.263,1302.428,418.263,1302.426,418.263z
				"/>
		</g>
	</g>
	<g>
		<g>
			<path style="fill:#331832;" d="M2114.39,1355.413c0,0-0.253,10.122-7.103,12.977c-6.849,2.855-26.694,5.432-19.278,11.94
				c4.255,3.734,24.307,1.321,29.968,1.321c5.662,0,10.978,2.467,15.185-1.322c4.628-4.169-0.001-24.916-0.001-24.916
				s-4.885,2.545-9.279,2.431C2117.551,1357.679,2114.39,1355.413,2114.39,1355.413z"/>
		</g>
		<g>
			<path style="fill:#331832;" d="M2193.046,1355.411c0,0-0.253,10.122-7.102,12.977c-6.849,2.855-26.694,5.432-19.279,11.939
				c4.255,3.734,24.307,1.321,29.969,1.321c5.662,0,10.977,2.467,15.184-1.322c4.628-4.169-0.001-24.916-0.001-24.916
				s-4.885,2.545-9.279,2.431C2196.207,1357.677,2193.046,1355.411,2193.046,1355.411z"/>
		</g>
		<g>
			<path style="fill:#366F90;" d="M2063.485,1077.935c0,0-1.267,42.369,12.257,123.647c9.763,58.677,21.288,117.804,26.942,146.151
				c2.023,10.14,10.551,17.554,20.657,17.959l5.431,0.218c10.928,0.438,19.797-8.949,18.999-20.109l-13.72-191.777l-3.382-63.121
				L2063.485,1077.935z"/>
		</g>
		<g>
			<path style="fill:#331832;" d="M2187.187,1115.221c-0.624,5.157-29.782,4.53-65.483,0.011
				c-35.701-4.519-63.49-12.253-62.866-17.41c0.624-5.157,29.423-5.783,65.124-1.265
				C2159.663,1101.077,2187.811,1110.064,2187.187,1115.221z"/>
		</g>
		<g>
			<path style="fill:#366F90;" d="M2104.473,1108.197l76.22,244.842c3.19,10.249,12.417,17.271,22.928,17.451l4.581,0.078
				c10.817,0.185,19.085-9.817,17.113-20.7l-41.694-230.061c-0.606-2.734-2.624-4.909-5.261-5.669
				C2164.064,1110.015,2103.07,1098.071,2104.473,1108.197z"/>
		</g>
		<g>
			<path style="fill:#92A5E6;" d="M2175.267,974.255c0,0-10.141-28.532-46.267-27.234c-36.126,1.298-63.404,48.771-70.162,150.802
				c0,0,59.156-12.972,128.455,17.29C2187.292,1115.113,2191.134,1015.842,2175.267,974.255z"/>
		</g>
		<g>
			<path style="fill:#92A5E6;" d="M2200.638,972.537l-25.594,16.381c0,0-65.786,6.582-83.25,3.413
				c-17.464-3.169-20.182-16.009-20.182-16.009s16.614-22.788,48.229-28.448c2.97-0.536,5.963-0.624,9.157-0.853
				c5.362-0.38,10.724-0.216,15.981,0.35C2176.213,950.744,2200.638,972.537,2200.638,972.537z"/>
		</g>
		<g>
			<path style="fill:#020202;" d="M2138.538,1217.632l-16.392-49.83c-3.686-11.205-11.266-20.556-21.347-26.332l0.638-1.112
				c10.355,5.933,18.143,15.538,21.927,27.044l16.392,49.83L2138.538,1217.632z"/>
		</g>
		<g>
			<g>
				<path style="fill:#EF8062;" d="M2104.224,940.667c-0.198-0.047-4.857-1.184-6.241-4.521c-0.731-1.761-0.399-3.796,0.987-6.047
					c0.617-1.003,1.186-1.91,1.707-2.741c3.618-5.768,4.836-7.712,3.889-12.226l0.411-0.086c0.982,4.68-0.359,6.819-3.945,12.536
					c-0.52,0.829-1.088,1.736-1.705,2.739c-1.311,2.129-1.633,4.036-0.956,5.665c1.304,3.142,5.904,4.262,5.95,4.273
					L2104.224,940.667z"/>
			</g>
			<g>
				<path style="fill:#EF8062;" d="M2104.771,915.089c0,0,1.601,7.245-3.199,14.829c-4.8,7.584,0.424,13.126,6.927,10.209
					c6.503-2.917,8.982,5.374,17.295,0.791C2134.106,936.335,2104.771,915.089,2104.771,915.089z"/>
			</g>
			<g>
				<path style="fill:#FFB27D;" d="M2143.192,947.126c-3.592-0.385-6.712-2.639-8.141-5.957l-4.477-10.397l-1.299-3.018
					l-7.639-17.744l1.324,18.389l0.797,11.037l0.227,3.146c0.185,2.567-1.609,4.839-4.143,5.294l-0.044,0.008
					c-1.359,2.211-3.237,6.705,2.373,8.489c6.592,2.098,17.254-3.091,21.081-9.241
					C2143.23,947.13,2143.211,947.128,2143.192,947.126z"/>
			</g>
			<g>
				<path style="fill:#331832;" d="M2130.593,930.467c-0.003,0.102-0.01,0.203-0.019,0.305c-0.438,5.928-6.779,8.697-6.779,8.697
					l-0.038-0.033l-0.797-11.037c1.939-0.71,4.699-1.44,6.315-0.645C2130.119,928.169,2130.65,929.001,2130.593,930.467z"/>
			</g>
			<g>
				<ellipse style="fill:#FFB27D;" cx="2120.8" cy="912.951" rx="17.277" ry="21.315"/>
			</g>
			<g>
				<path style="fill:#FFB27D;" d="M2135.767,916.165c-1.957,1.869-4.693,2.06-6.112,0.428c-1.418-1.632-0.982-4.47,0.975-6.339
					c1.957-1.869,4.694-2.06,6.112-0.428C2138.16,911.459,2137.723,914.297,2135.767,916.165z"/>
			</g>
			<g>
				<path style="fill:#E9633E;" d="M2111.496,926.744c0,0,5.902,0.136,11.803-1.937c0,0,0.49,5.817-5.902,6.207
					C2113.681,931.24,2111.496,926.744,2111.496,926.744z"/>
			</g>
			<g>
				<path style="fill:#FFFFFF;" d="M2111.496,926.744c0,0,1.428,1.185,4.76,1.17c3.332-0.015,7.043-3.107,7.043-3.107
					S2116.188,926.76,2111.496,926.744z"/>
			</g>
			<g>
				<g>
					<path style="fill:#080435;" d="M2119.129,913.156c-0.115-0.031-0.215-0.114-0.262-0.233c-0.081-0.201,0.017-0.43,0.218-0.51
						c0.118-0.047,2.763-1.408,5.087,1.134c0.146,0.16,0.144,0.406-0.014,0.556c-0.157,0.15-0.375,0.107-0.556-0.014
						c-1.805-1.213-4.126-0.985-4.225-0.946C2119.295,913.175,2119.209,913.178,2119.129,913.156z"/>
				</g>
			</g>
			<g>
				<path style="fill:#080435;" d="M2122.239,917.475c0.03,0.937-0.497,1.715-1.177,1.736s-1.256-0.721-1.286-1.658
					c-0.03-0.937,0.498-1.715,1.178-1.736C2121.633,915.795,2122.209,916.538,2122.239,917.475z"/>
			</g>
			<g>
				<g>
					<path style="fill:#080435;" d="M2105.102,915.205c-0.118,0.015-0.242-0.024-0.331-0.116c-0.151-0.156-0.148-0.404,0.007-0.555
						c0.092-0.089,2.019-2.354,5.136-0.889c0.197,0.092,0.287,0.321,0.199,0.519c-0.088,0.198-0.306,0.242-0.519,0.199
						c-2.131-0.434-4.19,0.661-4.267,0.734C2105.263,915.159,2105.184,915.195,2105.102,915.205z"/>
				</g>
			</g>
			<g>
				<path style="fill:#080435;" d="M2109.622,918.013c0.385,0.855,0.193,1.775-0.427,2.054c-0.621,0.279-1.436-0.188-1.82-1.043
					c-0.385-0.855-0.193-1.775,0.427-2.054S2109.238,917.158,2109.622,918.013z"/>
			</g>
			<g>
				<path style="fill:#EF8062;" d="M2113.464,895.499c0,0,0.372,7.395,9.608,8.656c9.236,1.261,15.605,5.168,14.365,11.822
					c-1.24,6.653-16.127,20.456-5.186,25.802c10.941,5.346,8.613-4.623,20.475-2.311c11.862,2.311,14.001-13.528,5.834-22.72
					c-8.167-9.192-4.859-33.517-35.487-32.439c-30.628,1.079-19.406,25.514-19.406,25.514S2113.482,903.666,2113.464,895.499z"/>
			</g>
			<g>
				<path style="fill:#FFFFFF;" d="M2135.401,943.149c-2.304-0.931-3.721-2.316-4.21-4.119c-1.347-4.959,4.434-12.451,9.532-19.062
					c1.343-1.74,2.611-3.384,3.734-4.952c3.119-4.353,3.386-9.34,0.718-13.339c-2.927-4.385-8.501-6.238-14.55-4.837
					c-6.027,1.398-10.173,0.135-12.589-1.169c-2.625-1.417-3.803-3.141-3.852-3.214l0.207-0.139c0.048,0.07,4.809,6.916,16.178,4.28
					c6.15-1.427,11.828,0.467,14.813,4.94c2.689,4.028,2.412,9.248-0.721,13.623c-1.126,1.572-2.395,3.217-3.739,4.959
					c-5.063,6.564-10.804,14.004-9.49,18.845c0.474,1.747,1.804,3.04,4.064,3.952L2135.401,943.149z"/>
			</g>
			<g>
				<g>
					<path style="fill:#764678;" d="M2104.459,928.841c-2.594-0.956-4.878-3.822-6.1-7.667c-1.995-6.267-0.594-13.233,3.122-15.533
						c1.383-0.878,2.939-1.011,4.489-0.444c2.594,0.956,4.878,3.822,6.1,7.655l0,0c1.995,6.255,0.594,13.233-3.122,15.544
						c-0.833,0.522-1.728,0.778-2.645,0.778C2105.693,929.174,2105.076,929.063,2104.459,928.841z M2111.337,913.096
						c-1.15-3.622-3.256-6.3-5.633-7.178c-1.339-0.478-2.65-0.355-3.817,0.367c-3.439,2.133-4.689,8.711-2.794,14.656
						c1.15,3.611,3.255,6.3,5.633,7.178c1.328,0.467,2.65,0.355,3.811-0.367C2111.976,925.607,2113.232,919.029,2111.337,913.096
						L2111.337,913.096z"/>
				</g>
			</g>
			<g style="opacity:0.3;">
				<path style="fill:#FFFFFF;" d="M2132.058,908.784c1.386,6.086-0.829,12.62-4.948,14.595c-4.119,1.975-8.582-1.358-9.968-7.444
					c-1.386-6.086,0.829-12.62,4.948-14.595C2126.208,899.366,2130.671,902.698,2132.058,908.784z"/>
			</g>
			<g style="opacity:0.3;">
				<path style="fill:#FFFFFF;" d="M2112.235,913.363c1.39,6.114-0.461,12.744-4.133,14.808c-3.673,2.064-7.776-1.219-9.166-7.332
					c-1.39-6.114,0.461-12.744,4.133-14.808C2106.742,903.966,2110.845,907.249,2112.235,913.363z"/>
			</g>
			<g>
				<g>
					<path style="fill:#764678;" d="M2121.36,923.463c-2.656-1.289-4.684-4.2-5.561-7.989c-1.511-6.5,0.95-13.522,5.489-15.656
						c1.828-0.856,3.761-0.844,5.611,0.044c2.65,1.289,4.672,4.2,5.544,7.978l0,0c1.517,6.511-0.944,13.533-5.489,15.656
						c-0.9,0.433-1.828,0.645-2.756,0.645C2123.248,924.141,2122.293,923.907,2121.36,923.463z M2121.609,900.507
						c-4.222,1.989-6.494,8.622-5.067,14.789c0.817,3.511,2.745,6.311,5.156,7.478c1.617,0.756,3.328,0.767,4.933,0.033
						c4.228-1.989,6.5-8.622,5.067-14.789l0,0c-0.811-3.5-2.733-6.289-5.139-7.467c-0.822-0.4-1.672-0.6-2.522-0.6
						C2123.22,899.952,2122.404,900.141,2121.609,900.507z"/>
				</g>
			</g>
			<g>
				<g>
					<path style="fill:#764678;" d="M2111.421,915.641c0.161,0,0.322-0.056,0.456-0.167l0,0c0.078-0.067,1.939-1.522,5.15-0.911
						c0.378,0.056,0.767-0.178,0.844-0.567c0.078-0.389-0.178-0.767-0.567-0.833c-3.878-0.811-6.239,1.122-6.344,1.2
						c-0.3,0.256-0.344,0.711-0.089,1.011C2111.01,915.552,2111.215,915.641,2111.421,915.641z"/>
				</g>
			</g>
		</g>
		<g>
			<path style="fill:#331832;" d="M2201.002,973.103c0.888,2.577-5.806,7.4-14.95,10.773c-9.145,3.373-17.277,4.019-18.165,1.442
				c-0.888-2.577,5.806-7.4,14.95-10.773C2191.982,971.172,2200.115,970.527,2201.002,973.103z"/>
		</g>
		<g>
			<g>
				<path style="fill:#FFB27D;" d="M2130.377,1056.292l7.545-12.746c-0.042-2.556-4.237-7.274-1.81-6.47
					c9.439,3.126,28.324-3.358,33.296-10.39c6.904-9.763,6.175-24.928,4.252-35.444c-0.984-5.382,0.792-8.981,7.293-12.431
					c0,0,5.594-3.077,12.489-4.251c2.763-0.471,5.505,0.639,6.218,3.35c1.115,4.242,2.559,10.84,3.248,18.605
					c1.636,18.442-1.921,34.484-10.287,46.392c-10.268,14.615-29.408,23.982-59.508,21.338
					C2130.365,1064.002,2130.422,1059.05,2130.377,1056.292z"/>
			</g>
		</g>
		<g style="opacity:0.5;">
			<path style="fill:#EC865C;" d="M2185.893,1038.02c-0.89,0-1.716-0.255-2.382-0.791c-2.038-1.641-1.817-5.311,0.492-8.18
				c2.311-2.867,5.849-3.865,7.887-2.226c1.023,0.825,1.517,2.156,1.389,3.747c-0.121,1.503-0.79,3.077-1.881,4.434l0,0
				C2189.843,1036.935,2187.73,1038.02,2185.893,1038.02z M2189.506,1027.283c-1.451,0-3.226,0.94-4.524,2.552
				c-1.844,2.291-2.157,5.229-0.683,6.416c1.477,1.188,4.28,0.254,6.123-2.035l0,0c0.936-1.162,1.508-2.493,1.608-3.747
				c0.094-1.165-0.234-2.113-0.925-2.668C2190.668,1027.45,2190.116,1027.283,2189.506,1027.283z"/>
		</g>
		<g>
			<path style="fill:#366F90;" d="M2158.482,1109.631c0,0-71.252-13.611-94.354-7.19l11.078,16.417l41.184,2.33L2158.482,1109.631z"
				/>
		</g>
		<g>
			<path style="fill:#764678;" d="M2121.251,1077.935h-60.72c-2.615,0-4.88-1.816-5.448-4.369l-18.102-81.332
				c-0.744-3.342,1.799-6.514,5.224-6.514h57.943c2.956,0,5.515,2.052,6.157,4.937l18.452,82.906
				C2125.257,1075.806,2123.55,1077.935,2121.251,1077.935z"/>
		</g>
		<g>
			<g>
				<g>
					<path style="fill:#FFB27D;" d="M2138.31,1039.212c0,0-15.516-15.828-24.01-15.97c-8.494-0.142-19.451,6.098-14.205,7.304
						c5.246,1.206,12.376,0.895,12.376,0.895s-15.2,1.38-13.338,4.795c1.862,3.415,15.071,2.088,15.071,2.088
						s-17.957,3.083-15.153,5.74c2.804,2.656,16.428,0.218,16.428,0.218s-16.593,3.536-13.263,6.546s13.693-3.011,15.555,0.404
						c1.862,3.415,10.414,16.35,20.539,12.333V1039.212z"/>
				</g>
			</g>
			<g>
				<path style="fill:#E9845C;" d="M2118.498,1032.418c-1.827-1.651-5.912-0.683-5.951-0.672l-0.149-0.609
					c0.181-0.045,4.449-1.059,6.521,0.816L2118.498,1032.418z"/>
			</g>
			<g>
				<path style="fill:#E9845C;" d="M2121.49,1039.481c-3.17-1.889-7.166-0.865-7.206-0.854l-0.16-0.605
					c0.175-0.047,4.293-1.1,7.687,0.921L2121.49,1039.481z"/>
			</g>
			<g>
				<path style="fill:#E9845C;" d="M2122.243,1045.329c-1.791-1.919-6.639-0.755-6.689-0.743l-0.149-0.609
					c0.214-0.053,5.258-1.26,7.296,0.925L2122.243,1045.329z"/>
			</g>
		</g>
		<g>
			<g>
				<g>
					<path style="fill:#FFB27D;" d="M2037.357,1027.11c0,0-0.842,7.352,5.875,8.073c8.557,0.919,27.756-8.346,5.722-8.795
						c-0.549-0.011,14.064-1.04,12.322-4.575c-1.742-3.535-14.368-1.918-14.368-1.918s15.359-2.342,12.633-5.149
						c-2.727-2.806-12.671-2.439-12.671-2.439s12.995-1.354,9.751-4.54c-3.243-3.186-11.702,0.081-15.602,0.647
						c-3.685,0.534-4.534,3.083-3.764,6.601c0,0-1.269,3.948-0.186,6.119c0.416,0.833-0.29,1.821-0.273,2.477
						C2036.826,1024.865,2037.357,1027.11,2037.357,1027.11z"/>
				</g>
			</g>
		</g>
		<g>
			<path style="fill:#EF8062;" d="M2083.786,988.018c0,0-2.275-5.221-2.938-5.761c-0.663-0.54-28.029-0.36-27.849,0.9
				c0.18,1.26,1.26,5.041,3.781,5.761C2059.301,989.639,2084.827,990.317,2083.786,988.018z"/>
		</g>
	</g>
	<g>
		<path style="fill:#331832;" d="M2082.864,1370.22H807.308c-4.056,0-6.419-2.943-6.963-5.86c-0.55-2.952,0.612-6.594,4.448-8.073
			l123.943-47.795c4.374-1.686,8.964-2.542,13.643-2.542h1019.583c4.581,0,9.035,0.94,13.238,2.792l110.292,48.617
			c3.426,1.51,4.391,4.885,3.827,7.559C2088.763,1367.557,2086.552,1370.22,2082.864,1370.22z M942.379,1307.073
			c-4.54,0-8.995,0.829-13.239,2.466l-123.943,47.795c-3.234,1.247-4.213,4.324-3.749,6.82c0.425,2.28,2.214,4.942,5.859,4.942
			h1275.556c3.269,0,4.929-2.375,5.356-4.409c0.436-2.068-0.136-4.959-3.181-6.301l-110.292-48.617
			c-4.059-1.79-8.361-2.696-12.785-2.696H942.379z"/>
	</g>
	<g>
		<g>
			<g>
				<path style="fill:#FFB27D;" d="M1479.715,953.632l-1.402,0.664c-1.31,0.621-2.89,0.059-3.511-1.248l-6.454-13.571
					c-0.622-1.307-0.059-2.885,1.251-3.505l1.402-0.664c1.31-0.621,2.89-0.059,3.512,1.249l6.454,13.571
					C1481.588,951.434,1481.025,953.012,1479.715,953.632z"/>
			</g>
			<g>
				<path style="fill:#FFB27D;" d="M1485.092,949.774l-1.492,0.707c-1.285,0.609-2.836,0.057-3.446-1.225l-6.866-14.436
					c-0.61-1.283-0.058-2.831,1.227-3.439l1.492-0.707c1.285-0.609,2.836-0.058,3.446,1.225l6.866,14.436
					C1486.93,947.618,1486.378,949.166,1485.092,949.774z"/>
			</g>
			<g>
				<path style="fill:#FFB27D;" d="M1492.678,962.209l-0.977-0.227c-1.825-0.424-2.97-2.262-2.545-4.084l4.142-17.744
					c0.425-1.822,2.842-4.593,4.664-4.158c3.007,0.717,3.374,4.107,2.948,5.929l-4.142,17.744
					C1496.344,961.49,1494.503,962.633,1492.678,962.209z"/>
			</g>
			<g>
				<path style="fill:#FFB27D;" d="M1491.076,947.498l-0.549,0.26c-1.6,0.758-3.53,0.072-4.289-1.525l-9.72-20.439
					c-0.759-1.597-1.86-5.359,1.112-6.437c2.175-0.789,4.311,3.012,5.532,5.45c2.448,4.889,9.441,18.409,9.441,18.409
					C1493.363,944.814,1492.675,946.74,1491.076,947.498z"/>
			</g>
			<g>
				<path style="fill:#FFB27D;" d="M1479.859,967.95c0,0-13.926-12.217-14.706-23.611c-0.27-3.943,17.321-12.254,20.788-9.491
					c3.467,2.763,10.877,19.437,10.877,19.437L1479.859,967.95z"/>
			</g>
			<g>
				<path style="fill:#FFB27D;" d="M1473.818,955.698l-1.449,0.686c-1.294,0.613-0.227,3.131-1.115,2.011
					c-6.105-7.699-7.873-14.851-7.873-14.851c-0.614-1.291-0.05-3.638,1.244-4.251l1.293-0.382c1.293-0.613,3.001,0.427,3.615,1.718
					l5.52,11.607C1475.668,953.528,1475.112,955.086,1473.818,955.698z"/>
			</g>
		</g>
		<g>
			<path style="fill:#331832;" d="M1578.204,1334.55c0,0-0.493,9.442-6.969,11.934c-6.477,2.492-25.1,4.398-18.33,10.659
				c3.885,3.593,22.698,1.846,27.992,1.988c5.295,0.143,10.203,2.58,14.233-0.851c4.433-3.775,0.628-23.257,0.628-23.257
				s-4.633,2.252-8.739,2.035C1581.103,1336.745,1578.204,1334.55,1578.204,1334.55z"/>
		</g>
		<g>
			<path style="fill:#92A5E6;" d="M1531.74,1096.546c1.237,19.603,3.576,45.043,7.902,76.157
				c8.246,59.314,18.257,119.13,23.187,147.81c1.763,10.259,10.16,17.952,20.339,18.634l5.47,0.367
				c11.006,0.738,19.356-3.332,19.356-20.789l-0.536-159.388l-8.55-63.668C1598.907,1095.67,1529.71,1064.384,1531.74,1096.546z"/>
		</g>
		<g>
			<path style="fill:#331832;" d="M1638.864,1336.183c0,0-0.493,9.442-6.969,11.934c-6.477,2.493-25.1,4.398-18.33,10.659
				c3.885,3.593,22.698,1.846,27.992,1.988c5.295,0.143,10.203,2.579,14.233-0.851c4.433-3.775,0.628-23.257,0.628-23.257
				s-4.633,2.252-8.739,2.035C1641.763,1338.378,1638.864,1336.183,1638.864,1336.183z"/>
		</g>
		<g>
			<path style="fill:#92A5E6;" d="M1591.308,1049.571c0,0-2.43,42.603,8.993,124.765c8.247,59.314,18.257,119.13,23.187,147.81
				c1.763,10.259,10.16,17.952,20.339,18.634l5.47,0.367c11.006,0.738,20.203-8.468,19.702-19.721l-8.614-193.367l-1.692-63.613
				L1591.308,1049.571z"/>
		</g>
		<g>
			<path style="fill:#331832;" d="M1607.666,1227.426c-0.034-2.922-0.801-71.72,2.734-84.289
				c3.559-12.659,19.422-23.243,20.096-23.687l0.456,0.69c-0.163,0.107-16.281,10.861-19.756,23.222
				c-3.502,12.454-2.712,83.34-2.703,84.055L1607.666,1227.426z"/>
		</g>
		<g>
			<path style="fill:#FFB27D;" d="M1603.224,918.6l-4.262-12.748l-1.24-3.711l-7.293-21.821l-0.96,21.706l-0.574,13.029
				l-0.182,4.124c-0.123,2.799-1.964,3.388-4.205,5.821c-0.908,0.986-6.717,6.962-0.124,9.662
				c8.213,3.364,23.566-1.729,29.403-8.401C1613.742,926.251,1604.601,922.72,1603.224,918.6z"/>
		</g>
		<g>
			<path style="fill:#FFB27D;" d="M1570.797,885.941c1.814-12.804,12.571-22.054,24.028-20.66
				c11.456,1.394,19.273,12.904,17.46,25.709c-1.814,12.804-12.571,22.054-24.028,20.66
				C1576.801,910.255,1568.984,898.745,1570.797,885.941z"/>
		</g>
		<g>
			<path style="fill:#331832;" d="M1579.76,880.32c-11.962,0.416-17.764-5.981-17.902-11.904
				c-0.177-7.596,4.984-14.324,10.992-11.501c6.008,2.823,3.429-4.1,9.207-4.835c10.797-1.373,12.823,5.744,21.658,6.09
				c11.655,0.457,24.943,18.457,15.176,31.595C1618.892,889.765,1589.207,879.991,1579.76,880.32z"/>
		</g>
		<g>
			<path style="fill:#331832;" d="M1569.109,872.66c0,0,12.781,11.406,11.095,17.824c-1.686,6.418-1.259,8.932,6.206,12.355
				c7.465,3.423,0.873,8.983,10.821,9.384c9.948,0.401,22.135-10.495,22.132-28.407c-0.002-9.987-6.19-16.521-6.19-16.521
				L1569.109,872.66z"/>
		</g>
		<g>
			<path style="fill:#FFB27D;" d="M1573.752,890.2c1.448-1.905,4.111-2.476,5.947-1.276c1.836,1.2,2.151,3.716,0.703,5.621
				c-1.448,1.905-4.111,2.476-5.947,1.276S1572.304,892.105,1573.752,890.2z"/>
		</g>
		<g>
			<path style="fill:#331832;" d="M1623.687,894.704c-0.135,0-0.256-0.092-0.288-0.228c-0.579-2.415-3.065-3.795-3.09-3.808
				c-0.144-0.079-0.197-0.259-0.119-0.402c0.079-0.145,0.26-0.198,0.403-0.119c0.111,0.061,2.743,1.522,3.383,4.191
				c0.039,0.159-0.06,0.319-0.219,0.358C1623.733,894.701,1623.709,894.704,1623.687,894.704z"/>
		</g>
		<g>
			<path style="fill:#331832;" d="M1620.451,889.315c-0.156,0-0.286-0.122-0.297-0.28c-0.009-0.164,0.116-0.304,0.279-0.313
				c0.032-0.002,3.271-0.22,3.733-2.533c0.033-0.16,0.184-0.263,0.349-0.233c0.161,0.032,0.265,0.189,0.233,0.349
				c-0.553,2.765-4.129,3-4.281,3.009C1620.461,889.315,1620.456,889.315,1620.451,889.315z"/>
		</g>
		<g>
			<path style="fill:#331832;" d="M1574.663,856.471c-0.207,0-0.42-0.03-0.641-0.091c-0.994-0.273-1.734-0.748-2.45-1.209
				c-1.334-0.857-2.487-1.595-4.988-0.848c-0.161,0.049-0.323-0.042-0.369-0.199c-0.047-0.157,0.042-0.322,0.199-0.369
				c2.765-0.827,4.146,0.059,5.48,0.917c0.679,0.436,1.381,0.887,2.286,1.136c0.494,0.136,0.917,0.074,1.299-0.188
				c1.305-0.893,1.612-3.718,1.615-3.746c0.016-0.163,0.151-0.282,0.325-0.265c0.163,0.017,0.281,0.163,0.264,0.326
				c-0.013,0.127-0.34,3.129-1.87,4.175C1575.461,856.35,1575.076,856.471,1574.663,856.471z"/>
		</g>
		<g>
			<path style="fill:#331832;" d="M1602.803,857.237c-4.224,0-7.513-2.841-7.665-2.975c-0.123-0.108-0.135-0.295-0.027-0.418
				c0.107-0.124,0.295-0.136,0.419-0.028c0.039,0.035,3.963,3.421,8.543,2.734c0.173-0.022,0.313,0.088,0.338,0.249
				c0.024,0.162-0.088,0.313-0.25,0.337C1603.7,857.206,1603.246,857.237,1602.803,857.237z"/>
		</g>
		<g>
			<path style="fill:#331832;" d="M1576.95,896.655c-0.493,0-0.812-0.096-0.821-0.099c-0.075-0.024-0.117-0.104-0.094-0.179
				c0.024-0.076,0.105-0.116,0.18-0.093c0.108,0.034,2.706,0.802,4.541-2.588c0.038-0.071,0.127-0.095,0.194-0.058
				c0.069,0.038,0.095,0.125,0.057,0.194C1579.697,896.253,1577.959,896.655,1576.95,896.655z"/>
		</g>
		<g>
			<path style="fill:#331832;" d="M1531.74,1096.546c0,0,86.768-4.731,127.945,5.175l0.613-11.717l-57.737-17.063l-46.615,1.143
				l-14.32,3.049l-10.105,15.576L1531.74,1096.546z"/>
		</g>
		<g>
			<path style="fill:#EF8062;" d="M1651.984,953.832c0,0-7.637-32.778-54.354-32.776c-81.411,0.004-58.576,66.282-66.109,171.654
				c0,0,52.487-11.354,128.439,3.757c0,0,7.394-57.067-2.16-105.308C1655.278,978.42,1655.734,964.907,1651.984,953.832z"/>
		</g>
		<g>
			<path style="fill:#EF8062;" d="M1588.256,921.054c0,0-26.119,0.38-45.539,18.675c-19.42,18.295-44.429,43.497-49.736,57.996
				c-6.534,17.853,5.495,35.767,20.769,36.149c15.274,0.381,28.967-10.672,28.967-10.672L1588.256,921.054z"/>
		</g>
		<g>
			<path style="fill:#EF8062;" d="M1703.917,1017.484c-7.637-56.41-72.002-88.268-72.002-88.268l-13.726,70.755l26.808,8.491
				c13.785,4.366,19.43,20.873,11.072,32.654c-10.674,15.045-16.911,35.218-5.887,31.503
				C1669.019,1066.271,1707.735,1042.259,1703.917,1017.484z"/>
		</g>
		<g>
			<path style="fill:#331832;" d="M1662.375,1070.761l-0.571-0.03c2.266-41.333-5.064-83.647-5.138-84.071l0.564-0.099
				C1657.304,986.985,1664.645,1029.362,1662.375,1070.761z"/>
		</g>
		<g>
			<path style="fill:#331832;" d="M1533.663,1029.147l-0.291-0.492c15.347-9.036,35.318-32.841,35.518-33.079l0.438,0.366
				C1569.128,996.181,1549.094,1020.062,1533.663,1029.147z"/>
		</g>
		<g>
			<path style="fill:#EF8062;" d="M1526.75,971.374c0,0-19.734-20.538-26.631-21.934c-6.897-1.397-46.66,9.542-3.023,75.649
				L1526.75,971.374z"/>
		</g>
	</g>
	<g>
		<g>
			<path style="fill:#FFB27D;" d="M970.75,1170.561c2.56,4.562,28.268,44.384,22.887,83.333l-27.981-10.117l-12.786-52.501
				L970.75,1170.561z"/>
		</g>
		<g>
			<path style="fill:#68A1BF;" d="M859.017,1154.241c0,0,17.192-30.834,59.04-22.309c41.848,8.525,64.685,68.422,53.335,187.059
				c0,0-66.482-26.431-152.927-5.124C818.465,1313.866,832.694,1198.971,859.017,1154.241z"/>
		</g>
		<g>
			<path style="fill:#68A1BF;" d="M827.098,1141.781l29.416,29.364c0,0,75.411,20.374,96.356,20.13
				c20.945-0.244,29.19-15.552,29.19-15.552s-17.678-27.995-53.447-40.658c-3.36-1.195-6.875-2.247-10.554-3.132
				c-6.176-1.481-12.454-2.337-18.686-2.709C862.344,1127.022,827.098,1141.781,827.098,1141.781z"/>
		</g>
		<g>
			<path style="fill:#331832;" d="M827.099,1141.781c-4.702,5.111,2.55,10.694,10.672,18.803
				c8.122,8.109,16.513,12.837,18.741,10.562c2.228-2.276-2.55-10.694-10.672-18.803
				C837.719,1144.234,829.256,1139.437,827.099,1141.781z"/>
		</g>
		<g>
			<path style="fill:#FFB27D;" d="M852.602,1171.266c0,0,0.438-5.865-6.933-13.353c-4.44-4.51-10.06-7.457-13.829-9.088
				c-2.241-0.97-4.829,0.12-5.718,2.412l-2.358,6.08l10.981,7.07L852.602,1171.266z"/>
		</g>
		<g>
			<path style="fill:#EF8062;" d="M904.579,1280.033c0,0-90.747-49.177-123.273,4.468c-24.078,39.711,12.116,76.693,146.366,72.937
				c0,0,13.268-6.215,10.036-38.449C936.428,1306.218,904.579,1280.033,904.579,1280.033z"/>
		</g>
		<g>
			<path style="fill:#EF8062;" d="M904.579,1280.033c0,0,120.861-49.508,144.776-18.559c27.484,35.569,1.127,95.964-126.271,74.375
				l-15.526-16.86L904.579,1280.033z"/>
		</g>
		<g>
			<path style="fill:#020202;" d="M927.82,1357.645l-0.296-0.413c14.094-10.057,10.305-35.883,9.957-38.054l-91.606-33.339
				l0.174-0.478l91.884,33.441l0.026,0.145C938.009,1319.225,942.725,1347.01,927.82,1357.645z"/>
		</g>
		<g>
			<path style="fill:#331832;" d="M938.481,1327.858c0,0,22.274,0.906,32.737,6.037c10.463,5.131,4.876,17.657-16.368,17.323
				c-21.244-0.334-19.632-3.496-19.632-3.496S939.253,1336.725,938.481,1327.858z"/>
		</g>
		<g>
			<g>
				<path style="fill:#FFB27D;" d="M909.969,1282.391c7.376,0,13.436-1.865,18.35-5.572c9.28-6.999,11.001-18.158,9.656-25.586
					l-8.878-5.162c-0.441-2.436-17.574,6.616-17.545,6.606c-0.078,0.026-8.177,2.369-36.256-11.98
					c-19.546-9.989-29.398-24.166-30.117-43.34c-0.543-14.455,5.901-22.573,7.422-26.092c0.203-0.469-9.446-10.142-9.17-11.126
					l-7.233-3.676c0.233-0.829-6.954-3.664-6.853-3.901l-5.582,4.755c-2.755,6.373-8.615,21.003-7.859,41.161
					c0.786,20.94,9.432,49.842,46.163,68.613C882.097,1277.327,897.818,1282.391,909.969,1282.391z"/>
			</g>
		</g>
		<g>
			<g>
				<path style="fill:#764678;" d="M915.927,1283.568h78.316c1.64,0,3.095-1.043,3.613-2.588l16.275-48.604
					c0.82-2.448-1.015-4.974-3.613-4.974h-75.314c-3.432,0-6.479,2.182-7.562,5.417l-15.328,45.775
					C911.495,1281.042,913.329,1283.568,915.927,1283.568z"/>
			</g>
			<g>
				<path style="fill:#764678;" d="M920.842,1283.568h78.316c1.64,0,3.095-1.043,3.613-2.588l16.275-48.604
					c0.82-2.448-1.015-4.974-3.613-4.974h-75.314c-3.432,0-6.479,2.182-7.562,5.417l-15.328,45.775
					C916.41,1281.042,918.245,1283.568,920.842,1283.568z"/>
			</g>
			<g>
				<path style="fill:#DAEBE8;" d="M975.716,1253.894c0-1.845-2.129-2.598-3.987-2.598s-4.892,2.026-4.873,4.611
					c0.021,2.79,2.201,3.153,4.06,3.153S975.716,1256.243,975.716,1253.894z"/>
			</g>
			<g>
				<path style="fill:#764678;" d="M892.05,1276.699h107.147v6.868H889.811c-1.278,0-2.314-1.036-2.314-2.314l0,0
					C887.497,1278.738,889.535,1276.699,892.05,1276.699z"/>
			</g>
			<g>
				<path style="fill:#331832;" d="M926.166,1252.302c-0.034,0-0.068-0.005-0.101-0.014c-0.21-0.056-0.334-0.27-0.279-0.48
					c0.158-0.596,3.901-14.632,6.428-19.18c2.583-4.648,5.764-5.568,5.898-5.604c0.21-0.06,0.423,0.066,0.482,0.273
					c0.058,0.208-0.064,0.424-0.272,0.483c-0.03,0.008-3.011,0.892-5.421,5.229c-2.48,4.464-6.317,18.856-6.356,19
					C926.497,1252.186,926.339,1252.302,926.166,1252.302z"/>
			</g>
			<g>
				<path style="fill:#331832;" d="M914.836,1277.092c-0.216,0-0.393-0.176-0.393-0.393c0-0.217,0.176-0.393,0.393-0.393
					c2.465,0,3.083-0.995,3.089-1.005l6.074-18.161c0.068-0.205,0.291-0.318,0.496-0.247c0.206,0.068,0.317,0.291,0.247,0.497
					l-6.104,18.229C918.582,1275.738,917.821,1277.092,914.836,1277.092z"/>
			</g>
		</g>
		<g>
			<path style="fill:#EC865C;" d="M839.563,1240.254c-0.279,0-0.571-0.04-0.872-0.12c-1.686-0.452-3.538-2.141-4.834-4.407
				c-1.984-3.471-2.038-7.063-0.121-8.18c0.598-0.349,1.336-0.419,2.134-0.207c1.686,0.452,3.538,2.141,4.833,4.407
				c1.985,3.471,2.038,7.063,0.122,8.18C840.451,1240.145,840.025,1240.254,839.563,1240.254z M834.995,1228.236
				c-0.28,0-0.531,0.064-0.747,0.19c-1.38,0.804-1.154,3.916,0.492,6.797c1.148,2.008,2.802,3.551,4.214,3.929
				c0.539,0.146,0.995,0.109,1.358-0.102c1.379-0.804,1.154-3.916-0.493-6.797c-1.148-2.008-2.802-3.551-4.213-3.929
				C835.389,1228.265,835.185,1228.236,834.995,1228.236z"/>
		</g>
		<g>
			<path style="fill:#FFB27D;" d="M898.725,1129.152c5.146-0.151,9.048-0.68,12.008-4.162l9.16-10.774l2.666-3.137l15.678-18.444
				l-8.234,21.567l-4.944,12.945l-1.565,4.097c-1.062,2.781,0.341,4.078,1.33,7.331c0.401,1.318,3.103,9.431-3.937,9.481
				c-8.769,0.064-19.861-10.129-22.297-18.931C898.636,1129.135,898.68,1129.153,898.725,1129.152z"/>
		</g>
		<g>
			<path style="fill:#331832;" d="M917.346,1107.293c0,0-17.263-16.591-7.304-30.594c9.959-14.004,12.447,22.475,12.447,22.475
				l-2.783,8.432L917.346,1107.293z"/>
		</g>
		<g>
			<path style="fill:#331832;" d="M919.98,1113.844c-0.033,0.123-0.062,0.247-0.086,0.372c-1.602,7.274,5.108,12.956,5.108,12.956
				l0.058-0.025l4.944-12.945c-2.101-1.573-5.194-3.476-7.444-3.123C921.383,1111.263,920.438,1112.063,919.98,1113.844z"/>
		</g>
		<g>
			
				<ellipse transform="matrix(0.2768 -0.9609 0.9609 0.2768 -378.1498 1695.4246)" style="fill:#FFB27D;" cx="937.244" cy="1098.928" rx="24.513" ry="20.164"/>
		</g>
		<g>
			<path style="fill:#331832;" d="M921.609,1091.152c0,0,5.497,3.998,10.105,0.62c4.608-3.378,7.867-6.583,18.184-1.39
				c10.317,5.193,21.612,2.861,23.698-2.986c2.086-5.847-2.828-10.325-9.31-10.035c-6.481,0.29,1.371-3.263-3.137-9.409
				c-4.508-6.146-15.943,0.186-21.612-2.861c-5.669-3.047-25.862-5.694-29.495,11.608L921.609,1091.152z"/>
		</g>
		<g>
			<path style="fill:#FFB27D;" d="M917.296,1094.617c1.325,2.046,3.867,2.735,5.678,1.539c1.811-1.196,2.204-3.824,0.879-5.87
				c-1.325-2.046-3.867-2.735-5.678-1.539C916.364,1089.943,915.971,1092.571,917.296,1094.617z"/>
		</g>
		<g>
			<path style="fill:#FFFFFF;" d="M962.199,1085.371c-4.335,0-10.217-5.289-10.487-5.534l0.508-0.559
				c0.069,0.062,6.933,6.232,10.902,5.23c1.526-0.387,2.388-1.109,2.251-1.886c-0.131-0.738-1.212-1.43-2.749-1.283
				c-3.356,0.346-5.181-0.797-5.257-0.845l0.407-0.637c0.017,0.011,1.699,1.046,4.774,0.731c2.064-0.209,3.378,0.823,3.569,1.903
				c0.167,0.942-0.484,2.159-2.809,2.748C962.954,1085.329,962.582,1085.371,962.199,1085.371z"/>
		</g>
		<g>
			<path style="fill:#FFFFFF;" d="M944.379,1070.886c-1.431,0-2.912-0.212-4.324-0.766c-1.795-0.703-3.356-1.528-4.864-2.325
				c-2.926-1.547-5.458-2.884-8.203-2.347l-0.145-0.742c3.009-0.588,5.647,0.807,8.701,2.421c1.49,0.787,3.03,1.602,4.787,2.29
				c5.245,2.054,11.385-0.914,11.769-1.237l0.553,0.514C952.325,1069.074,948.566,1070.886,944.379,1070.886z"/>
		</g>
		<g>
			<path style="fill:#FFFFFF;" d="M915.277,1075.803c-0.11,0-0.213-0.017-0.306-0.052c-0.254-0.095-0.643-0.393-0.398-1.316
				l0.055-0.12c0.423-0.605,2.61-3.581,4.123-2.627c0.193,0.121,0.6,0.491,0.198,1.298
				C918.451,1073.99,916.438,1075.803,915.277,1075.803z M915.287,1074.691c-0.068,0.288-0.026,0.374-0.026,0.375
				c0.203,0.068,1.293-0.454,2.328-1.52c0.734-0.756,0.795-1.153,0.771-1.21C917.687,1071.907,916.151,1073.475,915.287,1074.691z"
				/>
		</g>
		<g>
			<g>
				<path style="fill:#080435;" d="M941.112,1099.567c0.123-0.017,0.236-0.09,0.301-0.208c0.109-0.199,0.039-0.449-0.157-0.56
					c-0.116-0.065-2.664-1.832-5.394,0.505c-0.172,0.147-0.201,0.404-0.059,0.58c0.142,0.177,0.373,0.162,0.575,0.059
					c2.02-1.023,4.383-0.478,4.48-0.424C940.939,1099.565,941.028,1099.579,941.112,1099.567z"/>
			</g>
		</g>
		<g>
			<path style="fill:#080435;" d="M937.339,1103.65c-0.154,0.972,0.287,1.851,0.986,1.964c0.698,0.113,1.389-0.584,1.543-1.555
				c0.154-0.972-0.287-1.851-0.986-1.964C938.184,1101.982,937.493,1102.678,937.339,1103.65z"/>
		</g>
		<g>
			<g>
				<path style="fill:#080435;" d="M955.379,1104.741c0.093,0.024,0.198-0.007,0.285-0.095c0.146-0.15,0.184-0.406,0.083-0.574
					c-0.059-0.099-1.247-2.582-3.989-1.298c-0.173,0.081-0.282,0.31-0.243,0.522c0.039,0.211,0.207,0.273,0.386,0.244
					c1.783-0.291,3.265,0.992,3.315,1.074C955.257,1104.682,955.315,1104.725,955.379,1104.741z"/>
			</g>
		</g>
		<g>
			<path style="fill:#080435;" d="M950.26,1107.042c-0.509,0.839-0.432,1.822,0.171,2.195c0.603,0.373,1.505-0.005,2.014-0.844
				c0.509-0.839,0.432-1.822-0.171-2.195C951.67,1105.824,950.769,1106.203,950.26,1107.042z"/>
		</g>
		<g>
			<g>
				<path style="fill:#020202;" d="M938.576,1117.373c-2.456,0-6.165-0.723-8.366-4.613c-0.078-0.137-0.03-0.313,0.108-0.391
					c0.138-0.079,0.313-0.03,0.39,0.109c3.271,5.78,9.916,4.159,10.198,4.086c0.153-0.041,0.31,0.054,0.349,0.207
					c0.039,0.153-0.053,0.309-0.206,0.349C941.022,1117.126,940.013,1117.373,938.576,1117.373z"/>
			</g>
			<g>
				<path style="fill:#020202;" d="M929.628,1113.77c-0.03,0-0.06-0.004-0.09-0.014c-0.15-0.049-0.232-0.212-0.182-0.362
					c0.236-0.715,0.869-1.373,1.881-1.955c0.135-0.079,0.338-0.054,0.419,0.077c0.081,0.131,0.077,0.284-0.051,0.37l-0.083,0.048
					c-1.104,0.635-1.492,1.242-1.623,1.639C929.86,1113.693,929.748,1113.77,929.628,1113.77z"/>
			</g>
		</g>
		<g>
			
				<rect x="963.09" y="1174.409" transform="matrix(0.9499 -0.3125 0.3125 0.9499 -321.0457 360.344)" style="fill:#331832;" width="1.256" height="14.793"/>
		</g>
		<g>
			<path style="fill:#FFFFFF;" d="M952.556,1120.938c-1.475,0-2.803-0.551-3.88-1.617c-3.444-3.413-3.282-11.322,0.363-17.631
				c2.243-3.884,5.39-6.445,8.418-6.85c1.805-0.243,3.434,0.298,4.71,1.561c3.445,3.412,3.282,11.322-0.362,17.631
				c-2.243,3.883-5.39,6.443-8.418,6.849C953.104,1120.919,952.828,1120.938,952.556,1120.938z M958.276,1095.636
				c-0.231,0-0.467,0.016-0.706,0.048c-2.768,0.37-5.682,2.774-7.794,6.431l0,0c-3.463,5.995-3.688,13.442-0.501,16.6
				c1.08,1.071,2.46,1.525,3.997,1.323c2.768-0.371,5.682-2.775,7.794-6.431c3.464-5.996,3.689-13.443,0.501-16.6
				C960.655,1096.104,959.528,1095.636,958.276,1095.636z"/>
		</g>
		<g style="opacity:0.3;">
			<path style="fill:#FFFFFF;" d="M928.519,1092.418c-2.951,6.275-2.135,13.91,1.822,17.053c3.958,3.143,9.558,0.603,12.509-5.672
				c2.951-6.275,2.135-13.91-1.822-17.053C937.071,1083.604,931.47,1086.143,928.519,1092.418z"/>
		</g>
		<g style="opacity:0.3;">
			<path style="fill:#FFFFFF;" d="M948.745,1102.193c-2.962,6.305-2.562,13.955,0.894,17.087c3.456,3.132,8.658,0.56,11.62-5.745
				c2.962-6.305,2.562-13.955-0.894-17.087C956.909,1093.317,951.707,1095.889,948.745,1102.193z"/>
		</g>
		<g>
			<path style="fill:#FFFFFF;" d="M934.772,1111.157c-1.547,0-3.009-0.513-4.299-1.52c-4.371-3.413-5.335-11.638-2.149-18.336
				c1.858-3.906,4.744-6.577,7.917-7.326c2.18-0.514,4.259-0.059,6.019,1.314c4.37,3.413,5.334,11.639,2.149,18.337
				c-1.858,3.906-4.744,6.576-7.917,7.325C935.911,1111.089,935.336,1111.157,934.772,1111.157z M937.953,1084.623
				c-0.496,0-1.003,0.06-1.515,0.181c-2.877,0.679-5.622,3.245-7.343,6.863l0,0c-3.025,6.357-2.171,14.117,1.903,17.298
				c1.55,1.21,3.383,1.611,5.3,1.157c2.877-0.679,5.622-3.244,7.343-6.862c3.024-6.357,2.17-14.117-1.904-17.298
				C940.601,1085.074,939.314,1084.623,937.953,1084.623z"/>
		</g>
		<g>
			<path style="fill:#FFFFFF;" d="M949.251,1104.879c-0.238,0-0.473-0.106-0.63-0.309c-0.076-0.096-1.728-2.141-5.317-2.23
				c-0.439-0.011-0.786-0.376-0.775-0.815c0.011-0.438,0.39-0.76,0.815-0.775c4.392,0.109,6.453,2.739,6.538,2.851
				c0.267,0.349,0.2,0.848-0.149,1.115C949.589,1104.826,949.419,1104.879,949.251,1104.879z"/>
		</g>
		<g>
			
				<rect x="908.385" y="1297.522" transform="matrix(0.9208 -0.3901 0.3901 0.9208 -432.107 467.9529)" style="fill:#020202;" width="55.22" height="0.509"/>
		</g>
	</g>
	<g>
		<g>
			<path style="fill:#FFB27D;" d="M530.919,1113.001c0,0,18.764-0.865,21.752-29.655c3.071-29.592-30.87,0-30.87,0L530.919,1113.001
				z"/>
		</g>
		<g>
			<path style="fill:#FFB27D;" d="M511.775,1018.608c1.143,0.451,20.136,5.597,28.546,34.241s-19.823,6.061-19.823,6.061
				L511.775,1018.608z"/>
		</g>
		<g>
			<path style="fill:#331832;" d="M486.761,1413.261c0,0,0.258,10.295,7.224,13.199c6.966,2.904,27.15,5.525,19.608,12.144
				c-4.328,3.798-24.723,1.344-30.481,1.344c-5.759,0-11.165,2.509-15.444-1.345c-4.707-4.24,0.001-25.342,0.001-25.342
				s4.969,2.589,9.438,2.473C483.546,1415.566,486.761,1413.261,486.761,1413.261z"/>
		</g>
		<g>
			<path style="fill:#331832;" d="M406.76,1413.259c0,0,0.258,10.295,7.224,13.199c6.966,2.904,27.15,5.525,19.608,12.144
				c-4.328,3.798-24.723,1.344-30.481,1.344c-5.759,0-11.165,2.509-15.444-1.345c-4.708-4.24,0.001-25.342,0.001-25.342
				s4.969,2.589,9.438,2.473C403.545,1415.564,406.76,1413.259,406.76,1413.259z"/>
		</g>
		<g>
			<path style="fill:#6DA49A;" d="M538.536,1131.038c0,0,1.288,43.093-12.467,125.762c-9.93,59.68-21.652,119.819-27.403,148.65
				c-2.057,10.313-10.731,17.854-21.011,18.266l-5.524,0.222c-11.115,0.446-20.136-9.102-19.324-20.453l13.954-195.056l3.44-64.2
				L538.536,1131.038z"/>
		</g>
		<g>
			<path style="fill:#331832;" d="M412.719,1168.961c0.634,5.245,30.291,4.608,66.603,0.012s64.576-12.463,63.941-17.707
				c-0.634-5.245-29.927-5.882-66.238-1.286C440.714,1154.575,412.085,1163.716,412.719,1168.961z"/>
		</g>
		<g>
			<path style="fill:#6DA49A;" d="M496.847,1161.818l-77.523,249.029c-3.245,10.424-12.629,17.567-23.32,17.749l-4.66,0.08
				c-11.002,0.188-19.412-9.985-17.406-21.054l42.407-233.995c0.616-2.781,2.669-4.993,5.351-5.767
				C436.238,1163.666,498.275,1151.518,496.847,1161.818z"/>
		</g>
		<g>
			<path style="fill:#73B3CE;" d="M424.843,1025.585c0,0,10.315-29.02,47.059-27.7c36.744,1.32,64.488,49.605,71.362,153.381
				c0,0-60.168-13.193-130.652,17.586C412.611,1168.851,408.704,1067.883,424.843,1025.585z"/>
		</g>
		<g>
			<path style="fill:#73B3CE;" d="M399.038,1023.838l26.031,16.662c0,0,66.911,6.694,84.674,3.472s20.527-16.283,20.527-16.283
				s-16.898-23.177-49.053-28.934c-3.021-0.545-6.065-0.635-9.314-0.868c-5.454-0.387-10.908-0.22-16.254,0.356
				C423.88,1001.671,399.038,1023.838,399.038,1023.838z"/>
		</g>
		<g>
			<path style="fill:#020202;" d="M462.2,1273.124l-1.239-0.408l16.672-50.683c3.85-11.702,11.771-21.471,22.303-27.507l0.649,1.132
				c-10.253,5.875-17.964,15.386-21.713,26.782L462.2,1273.124z"/>
		</g>
		<g>
			<path style="fill:#331832;" d="M398.667,1024.413c-0.903,2.621,5.905,7.526,15.206,10.957c9.301,3.431,17.573,4.088,18.476,1.467
				c0.903-2.621-5.905-7.526-15.206-10.957C407.842,1022.449,399.57,1021.792,398.667,1024.413z"/>
		</g>
		<g>
			<g>
				<path style="fill:#FFB27D;" d="M462.515,1115.083l0.311-19.022c0.043-2.599-1.957-4.778-4.551-4.964
					c-13.186-0.943-22.417-5.033-27.474-12.185c-7.022-9.93-6.281-25.354-4.324-36.051c1.001-5.474-0.806-9.135-7.418-12.643
					c0,0-5.689-3.129-12.703-4.324c-2.81-0.479-5.599,0.65-6.324,3.407c-1.134,4.314-2.603,11.026-3.304,18.923
					c-1.664,18.757,1.954,35.074,10.463,47.185c10.443,14.865,27.278,23.09,50.088,24.487
					C460.08,1120.068,462.469,1117.888,462.515,1115.083z"/>
			</g>
		</g>
		<g style="opacity:0.5;">
			<path style="fill:#EC865C;" d="M414.035,1090.439c-1.868,0-4.017-1.101-5.6-3.067c-1.111-1.379-1.79-2.98-1.913-4.508
				c-0.13-1.619,0.371-2.972,1.412-3.811c1.041-0.838,2.471-1.04,4.024-0.568c1.467,0.447,2.887,1.451,3.998,2.831
				c1.111,1.379,1.791,2.981,1.914,4.509c0.13,1.619-0.372,2.972-1.413,3.81C415.78,1090.18,414.94,1090.439,414.035,1090.439z
				 M410.374,1079.511c-0.638,0-1.199,0.181-1.639,0.535c-0.703,0.566-1.037,1.53-0.942,2.715c0.103,1.276,0.684,2.629,1.636,3.811
				c1.877,2.329,4.729,3.277,6.228,2.069c0.703-0.565,1.037-1.529,0.941-2.714c-0.102-1.276-0.684-2.63-1.636-3.812
				c-0.952-1.181-2.15-2.038-3.375-2.409C411.162,1079.576,410.754,1079.511,410.374,1079.511z"/>
		</g>
		<g>
			<path style="fill:#6DA49A;" d="M441.915,1163.276c0,0,72.47-13.844,95.967-7.314l-11.267,16.698l-41.888,2.37L441.915,1163.276z"
				/>
		</g>
		<g>
			<g>
				<path style="fill:#331832;" d="M471.178,1092.918l62.468,0.024c1.308,0,2.469-0.831,2.882-2.063l12.996-38.764
					c0.654-1.952-0.808-3.968-2.88-3.968l-60.074-0.023c-2.738-0.001-5.169,1.739-6.034,4.318l-12.24,36.508
					C467.643,1090.902,469.106,1092.917,471.178,1092.918z"/>
			</g>
			<g>
				<path style="fill:#331832;" d="M475.099,1092.92l62.468,0.024c1.308,0,2.469-0.831,2.882-2.063l12.996-38.764
					c0.655-1.952-0.808-3.968-2.88-3.968l-60.074-0.023c-2.738-0.001-5.168,1.739-6.033,4.318l-12.24,36.508
					C471.564,1090.903,473.027,1092.919,475.099,1092.92z"/>
			</g>
			<g>
				<path style="fill:#DAEBE8;" d="M518.878,1069.267c0-1.472-1.697-2.073-3.18-2.073c-1.482-0.001-3.903,1.614-3.888,3.677
					c0.016,2.225,1.755,2.516,3.237,2.516C516.529,1073.388,518.877,1071.141,518.878,1069.267z"/>
			</g>
			<g>
				<path style="fill:#366F90;" d="M479.55,1067.721l-0.392-0.104c0.126-0.474,3.112-11.656,5.123-15.272
					c2.039-3.667,4.534-4.387,4.639-4.416l0.107,0.392c-0.024,0.006-2.441,0.715-4.392,4.222
					C482.65,1056.113,479.581,1067.605,479.55,1067.721z"/>
			</g>
			<g>
				
					<rect x="467.818" y="1079.007" transform="matrix(0.3191 -0.9477 0.9477 0.3191 -699.0339 1185.4493)" style="fill:#366F90;" width="15.334" height="0.406"/>
			</g>
		</g>
		<g>
			<g>
				<path style="fill:#FFB27D;" d="M553.047,1079.074c0,0,1.035,8.138-5.85,8.91c-8.772,0.984-20.797-6.87-15.248-7.576
					c4.919-0.626,12.148,0.292,12.148,0.292s-18.356-2.61-16.648-6.514s17.469-1.43,17.469-1.43s-17.691-4.35-14.954-7.445
					c2.737-3.095,17.058-0.944,17.058-0.944s-17.479-3.254-14.219-6.767s12.028,0.134,16.049,0.774
					c3.8,0.605,4.731,3.428,4.022,7.318c0,0,1.396,4.373,0.333,6.771c-0.408,0.919,0.34,2.016,0.338,2.741
					C553.541,1076.592,553.047,1079.074,553.047,1079.074z"/>
			</g>
		</g>
		<g>
			<g>
				<g>
					<path style="fill:#FFB27D;" d="M453.434,1089.89c0,0,4.631-14.016,12.56-17.448c7.93-3.432,20.653-1.82,16.19,1.351
						c-4.464,3.171-11.286,5.647-11.286,5.647s14.825-4.605,14.401-0.671c-0.425,3.933-13.357,7.814-13.357,7.814
						s18.078-4.074,16.474-0.488c-1.604,3.586-15.359,6.584-15.359,6.584s16.971-3.118,15.01,1.003
						c-1.961,4.122-14.041,2.486-14.466,6.419c-0.425,3.934-3.441,19.414-14.519,19.569L453.434,1089.89z"/>
				</g>
			</g>
			<g>
				<path style="fill:#E9845C;" d="M465.612,1082.697l-0.576-0.273c1.22-2.568,5.626-3.27,5.813-3.299l0.097,0.631
					C470.903,1079.762,466.687,1080.436,465.612,1082.697z"/>
			</g>
			<g>
				<path style="fill:#E9845C;" d="M465.542,1090.5l-0.511-0.383c2.406-3.217,6.687-3.827,6.868-3.851l0.085,0.632
					C471.942,1086.905,467.784,1087.5,465.542,1090.5z"/>
			</g>
			<g>
				<path style="fill:#E9845C;" d="M467.104,1096.291l-0.598-0.225c1.069-2.846,6.28-3.669,6.501-3.702l0.096,0.631
					C473.052,1093.002,468.041,1093.793,467.104,1096.291z"/>
			</g>
		</g>
		<g>
			<path style="fill:#E9845C;" d="M546.191,1088.435c-2.646,0-5.608-0.729-5.797-0.776l0.154-0.618
				c1.884,0.469,7.126,1.398,8.734,0.064l0.407,0.491C548.928,1088.226,547.604,1088.435,546.191,1088.435z"/>
		</g>
		<g>
			<g>
				<path style="fill:#EF8062;" d="M492.56,944.901c0,0,4.975-13.654-7.159-17.919c-12.135-4.265-11.586,5.817-14.418,7.67
					c-2.831,1.853,1.177,10.317,6.932,12.706C483.67,949.748,492.56,944.901,492.56,944.901z"/>
			</g>
			<g>
				<path style="fill:#FFB27D;" d="M473.259,1007.604c5.836-1.887,2.434-9.47,2.434-9.47c-2.64-0.46-4.575-2.21-4.401-4.883
					l0.222-3.284l0.111-1.628l0.343-5.203l0.312-4.672l1.279-19.16l-7.859,18.528l-1.336,3.147l-4.606,10.86
					c-1.471,3.462-4.47,6.001-8.329,6.971C454.046,1001.73,466.408,1009.828,473.259,1007.604z"/>
			</g>
			<g>
				<path style="fill:#331832;" d="M464.364,980.98c0,0,2.345,6.067,7.261,7.36l0.343-5.203
					C468.942,982.052,464.364,980.98,464.364,980.98z"/>
			</g>
			<g>
				<path style="fill:#EF8062;" d="M451.89,956.267c0,0,0.759,3.14-1.014,9.593c-2.594,9.441,8.201,13.318,10.944,10.613
					c0.339-0.335-0.199-16.367-0.199-16.367l-3.455-2.027L451.89,956.267z"/>
			</g>
			<g>
				
					<ellipse transform="matrix(1 -0.0054 0.0054 1 -5.1548 2.5585)" style="fill:#FFB27D;" cx="474.444" cy="962.363" rx="17.999" ry="22.205"/>
			</g>
			<g>
				<path style="fill:#EF8062;" d="M481.481,945.28c-0.496,0.685,2.398,12.092-18.75,14.934
					c-21.148,2.842-8.573-22.902,7.039-23.566c22.542-0.959,25.905,14.183,23.768,19.65
					C491.402,961.765,481.481,945.28,481.481,945.28z"/>
			</g>
			<g>
				<path style="fill:#EF8062;" d="M465.045,956.564c0,0-8.599,9.164-5.549,18.468c0,0-5.046-5.454-5.168-7.499
					s1.171-9.441,1.171-9.441L465.045,956.564z"/>
			</g>
			<g>
				<path style="fill:#FFB27D;" d="M458.871,965.795c2.049,1.936,4.901,2.12,6.37,0.411c1.469-1.708,0.998-4.663-1.051-6.598
					c-2.049-1.936-4.901-2.12-6.37-0.411C456.351,960.905,456.822,963.86,458.871,965.795z"/>
			</g>
			<g>
				<g>
					<path style="fill:#080435;" d="M476.186,962.567c0.12-0.033,0.223-0.12,0.272-0.245c0.083-0.21-0.02-0.447-0.23-0.531
						c-0.124-0.049-2.887-1.451-5.294,1.21c-0.152,0.168-0.147,0.424,0.018,0.579c0.165,0.155,0.392,0.11,0.579-0.017
						c1.873-1.274,4.293-1.049,4.396-1.01C476.013,962.588,476.104,962.59,476.186,962.567z"/>
				</g>
			</g>
			<g>
				<path style="fill:#080435;" d="M472.971,967.084c-0.026,0.977,0.528,1.783,1.236,1.802c0.709,0.019,1.304-0.758,1.33-1.734
					c0.026-0.977-0.528-1.784-1.236-1.802C473.592,965.331,472.997,966.107,472.971,967.084z"/>
			</g>
			<g>
				<g>
					<path style="fill:#080435;" d="M490.81,964.623c0.123,0.015,0.252-0.026,0.345-0.123c0.156-0.163,0.152-0.421-0.01-0.578
						c-0.096-0.092-2.116-2.441-5.355-0.898c-0.204,0.097-0.298,0.336-0.204,0.542c0.093,0.206,0.32,0.251,0.542,0.204
						c2.217-0.464,4.369,0.665,4.449,0.741C490.643,964.576,490.725,964.613,490.81,964.623z"/>
				</g>
			</g>
			<g>
				<path style="fill:#080435;" d="M486.117,967.574c-0.396,0.893-0.191,1.85,0.457,2.137c0.648,0.287,1.494-0.204,1.89-1.097
					c0.396-0.893,0.192-1.85-0.457-2.137C487.36,966.19,486.513,966.681,486.117,967.574z"/>
			</g>
			<g style="opacity:0.3;">
				<path style="fill:#FFFFFF;" d="M466.064,961.675c-1.616,5.277-0.084,11.183,3.42,13.19c3.505,2.008,7.656-0.643,9.271-5.92
					c1.616-5.277,0.085-11.183-3.42-13.19C471.831,953.747,467.68,956.398,466.064,961.675z"/>
			</g>
			<g style="opacity:0.3;">
				<path style="fill:#FFFFFF;" d="M484.04,964.853c-0.996,5.325,0.773,10.997,3.952,12.669c3.179,1.672,6.564-1.29,7.56-6.615
					c0.996-5.325-0.773-10.997-3.952-12.669S485.037,959.528,484.04,964.853z"/>
			</g>
			<g>
				<g>
					<path style="fill:#331832;" d="M465.095,965.469c0.002,0.285,0.011,0.57,0.035,0.846c0.161,2.717,1.044,5.229,2.493,6.976
						c0.573,0.697,1.239,1.271,1.988,1.69c0.718,0.404,1.466,0.647,2.228,0.719c0.208,0.022,0.416,0.029,0.624,0.027
						c0.693-0.011,1.4-0.154,2.091-0.427c1.713-0.679,3.199-2.096,4.281-4.034c0.45-0.795,0.83-1.682,1.133-2.639
						c0.31-0.995,0.513-2.004,0.607-3.021c0.051-0.431,0.072-0.855,0.078-1.286c0.064-3.788-1.271-7.352-3.598-9.234
						c-0.286-0.237-0.595-0.443-0.912-0.626c-1.56-0.877-3.269-0.991-4.944-0.32c-2.12,0.843-3.896,2.808-4.99,5.485
						c-0.16,0.386-0.296,0.779-0.425,1.188c-0.076,0.239-0.144,0.486-0.204,0.732c-0.189,0.709-0.316,1.433-0.396,2.15
						C465.12,964.291,465.092,964.884,465.095,965.469z M476.223,973.469c-0.598,0.527-1.242,0.938-1.918,1.203
						c-0.599,0.242-1.199,0.368-1.799,0.379c-0.878,0.012-1.741-0.206-2.559-0.664c-0.772-0.435-1.453-1.047-2.019-1.806
						c-1.403-1.824-2.172-4.445-2.156-7.232v-0.008c0.005-0.423,0.026-0.854,0.062-1.286c0.036-0.408,0.088-0.817,0.163-1.225
						c0.105-0.609,0.248-1.21,0.437-1.811c0.174-0.548,0.371-1.08,0.607-1.574c0.121-0.285,0.259-0.556,0.411-0.818
						c0.008-0.016,0.015-0.031,0.03-0.046c0.015-0.031,0.031-0.054,0.046-0.085c0.29-0.517,0.603-0.989,0.947-1.414
						c0.856-1.075,1.876-1.873,2.974-2.31c0.799-0.32,1.607-0.44,2.4-0.352c0.67,0.066,1.326,0.278,1.959,0.636
						c0.239,0.137,0.471,0.282,0.688,0.458c2.28,1.728,3.569,5.185,3.481,8.872c-0.005,0.431-0.034,0.862-0.085,1.301
						c-0.103,0.917-0.29,1.834-0.57,2.736c-0.28,0.902-0.645,1.751-1.08,2.508c-0.557,0.996-1.237,1.846-1.988,2.512
						C476.239,973.454,476.231,973.461,476.223,973.469z"/>
				</g>
			</g>
			<g>
				<g>
					<path style="fill:#331832;" d="M483.761,967.963c0.002,0.3,0.011,0.593,0.028,0.885c0.017,0.292,0.049,0.585,0.082,0.869
						c0.016,0.192,0.041,0.392,0.072,0.577c0,0.023,0.008,0.054,0.008,0.077c0.024,0.161,0.048,0.315,0.08,0.477
						c0.008,0.008,0.008,0.015,0.008,0.023c-0.193-1.415-0.193-2.947,0.03-4.488c-0.039-0.031-0.116-0.076-0.224-0.138
						c-0.029,0.293-0.051,0.578-0.065,0.87C483.765,967.401,483.759,967.686,483.761,967.963z M483.761,967.963
						c0.002,0.3,0.011,0.593,0.028,0.885c0.017,0.292,0.049,0.585,0.082,0.869c0.016,0.192,0.041,0.392,0.072,0.577
						c0,0.023,0.008,0.054,0.008,0.077c0.024,0.161,0.048,0.315,0.08,0.477c0.008,0.008,0.008,0.015,0.008,0.023
						c-0.193-1.415-0.193-2.947,0.03-4.488c-0.039-0.031-0.116-0.076-0.224-0.138c-0.029,0.293-0.051,0.578-0.065,0.87
						C483.765,967.401,483.759,967.686,483.761,967.963z M483.761,967.963c0.002,0.3,0.011,0.593,0.028,0.885
						c0.017,0.292,0.049,0.585,0.082,0.869c0.016,0.192,0.041,0.392,0.072,0.577c0,0.023,0.008,0.054,0.008,0.077
						c0.024,0.161,0.048,0.315,0.08,0.477c0.008,0.008,0.008,0.015,0.008,0.023c-0.193-1.415-0.193-2.947,0.03-4.488
						c-0.039-0.031-0.116-0.076-0.224-0.138c-0.029,0.293-0.051,0.578-0.065,0.87C483.765,967.401,483.759,967.686,483.761,967.963z
						 M483.761,967.963c0.002,0.3,0.011,0.593,0.028,0.885c0.017,0.292,0.049,0.585,0.082,0.869
						c0.016,0.192,0.041,0.392,0.072,0.577c0,0.023,0.008,0.054,0.008,0.077c0.024,0.161,0.048,0.315,0.08,0.477
						c0.008,0.008,0.008,0.015,0.008,0.023c-0.193-1.415-0.193-2.947,0.03-4.488c-0.039-0.031-0.116-0.076-0.224-0.138
						c-0.029,0.293-0.051,0.578-0.065,0.87C483.765,967.401,483.759,967.686,483.761,967.963z M483.761,967.963
						c0.002,0.3,0.011,0.593,0.028,0.885c0.017,0.292,0.049,0.585,0.082,0.869c0.016,0.192,0.041,0.392,0.072,0.577
						c0,0.023,0.008,0.054,0.008,0.077c0.024,0.161,0.048,0.315,0.08,0.477c0.008,0.008,0.008,0.015,0.008,0.023
						c-0.193-1.415-0.193-2.947,0.03-4.488c-0.039-0.031-0.116-0.076-0.224-0.138c-0.029,0.293-0.051,0.578-0.065,0.87
						C483.765,967.401,483.759,967.686,483.761,967.963z M483.761,967.963c0.002,0.3,0.011,0.593,0.028,0.885
						c0.017,0.292,0.049,0.585,0.082,0.869c0.016,0.192,0.041,0.392,0.072,0.577c0,0.023,0.008,0.054,0.008,0.077
						c0.024,0.161,0.048,0.315,0.08,0.477c0.008,0.008,0.008,0.015,0.008,0.023c-0.193-1.415-0.193-2.947,0.03-4.488
						c-0.039-0.031-0.116-0.076-0.224-0.138c-0.029,0.293-0.051,0.578-0.065,0.87C483.765,967.401,483.759,967.686,483.761,967.963z
						 M483.761,967.963c0.002,0.3,0.011,0.593,0.028,0.885c0.017,0.292,0.049,0.585,0.082,0.869
						c0.016,0.192,0.041,0.392,0.072,0.577c0,0.023,0.008,0.054,0.008,0.077c0.024,0.161,0.048,0.315,0.08,0.477
						c0.008,0.008,0.008,0.015,0.008,0.023c-0.193-1.415-0.193-2.947,0.03-4.488c-0.039-0.031-0.116-0.076-0.224-0.138
						c-0.029,0.293-0.051,0.578-0.065,0.87C483.765,967.401,483.759,967.686,483.761,967.963z M483.761,967.963
						c0.002,0.3,0.011,0.593,0.028,0.885c0.017,0.292,0.049,0.585,0.082,0.869c0.016,0.192,0.041,0.392,0.072,0.577
						c0,0.023,0.008,0.054,0.008,0.077c0.024,0.161,0.048,0.315,0.08,0.477c0.008,0.008,0.008,0.015,0.008,0.023
						c-0.193-1.415-0.193-2.947,0.03-4.488c-0.039-0.031-0.116-0.076-0.224-0.138c-0.029,0.293-0.051,0.578-0.065,0.87
						C483.765,967.401,483.759,967.686,483.761,967.963z M483.226,968.797c0.011,1.978,0.367,3.855,1.022,5.414h0.008v0.008
						c0.655,1.575,1.624,2.816,2.844,3.518c0.077,0.046,0.154,0.084,0.232,0.122c0.008,0.008,0.016,0.007,0.023,0.015
						c0.633,0.32,1.303,0.478,1.981,0.474c0.577-0.003,1.162-0.122,1.738-0.363c2.266-0.928,4.192-3.533,5.159-6.963
						c1.571-5.589,0.107-11.701-3.245-13.631c-0.07-0.038-0.147-0.084-0.216-0.114l-0.008,0c-0.293-0.153-0.579-0.266-0.88-0.349
						c-0.424-0.113-0.848-0.157-1.279-0.139c-0.531,0.018-1.061,0.144-1.599,0.355c-2.258,0.928-4.192,3.533-5.151,6.964
						c-0.06,0.224-0.121,0.447-0.174,0.671c-0.098,0.416-0.18,0.84-0.24,1.264C483.286,966.965,483.222,967.897,483.226,968.797z
						 M484.038,970.871c-0.193-1.415-0.193-2.947,0.03-4.488c0.067-0.447,0.149-0.894,0.247-1.333
						c0.06-0.254,0.128-0.509,0.196-0.763c0.453-1.619,1.123-3.031,1.941-4.152c0.787-1.074,1.714-1.872,2.705-2.308
						c0.038-0.023,0.077-0.039,0.115-0.055c0.492-0.203,0.992-0.305,1.484-0.308c0.431-0.002,0.863,0.073,1.279,0.232
						c0.208,0.076,0.409,0.167,0.61,0.282c3.104,1.785,4.421,7.551,2.933,12.863c-0.008,0.023-0.015,0.046-0.023,0.069
						c0,0.008,0,0.008,0,0.015c0,0.008-0.008,0.023-0.008,0.031c0,0.008-0.008,0.015-0.008,0.023
						c-0.922,3.169-2.68,5.534-4.723,6.376c-1.029,0.429-2.076,0.411-3.041-0.037c-0.116-0.046-0.224-0.107-0.332-0.168
						c-0.093-0.053-0.185-0.107-0.27-0.176c-0.023-0.008-0.054-0.03-0.077-0.053c0,0-0.008,0-0.008-0.008
						c-0.008,0-0.008-0.008-0.016-0.015c-0.711-0.489-1.315-1.209-1.797-2.1c-0.583-1.051-0.99-2.335-1.205-3.735
						C484.062,971.002,484.054,970.933,484.038,970.871z M483.761,967.963c0.002,0.3,0.011,0.593,0.028,0.885
						c0.017,0.292,0.049,0.585,0.082,0.869c0.016,0.192,0.041,0.392,0.072,0.577c0,0.023,0.008,0.054,0.008,0.077
						c0.024,0.161,0.048,0.315,0.08,0.477c0.008,0.008,0.008,0.015,0.008,0.023c-0.193-1.415-0.193-2.947,0.03-4.488
						c-0.039-0.031-0.116-0.076-0.224-0.138c-0.029,0.293-0.051,0.578-0.065,0.87C483.765,967.401,483.759,967.686,483.761,967.963z
						 M483.761,967.963c0.002,0.3,0.011,0.593,0.028,0.885c0.017,0.292,0.049,0.585,0.082,0.869
						c0.016,0.192,0.041,0.392,0.072,0.577c0,0.023,0.008,0.054,0.008,0.077c0.024,0.161,0.048,0.315,0.08,0.477
						c0.008,0.008,0.008,0.015,0.008,0.023c-0.193-1.415-0.193-2.947,0.03-4.488c-0.039-0.031-0.116-0.076-0.224-0.138
						c-0.029,0.293-0.051,0.578-0.065,0.87C483.765,967.401,483.759,967.686,483.761,967.963z M483.761,967.963
						c0.002,0.3,0.011,0.593,0.028,0.885c0.017,0.292,0.049,0.585,0.082,0.869c0.016,0.192,0.041,0.392,0.072,0.577
						c0,0.023,0.008,0.054,0.008,0.077c0.024,0.161,0.048,0.315,0.08,0.477c0.008,0.008,0.008,0.015,0.008,0.023
						c-0.193-1.415-0.193-2.947,0.03-4.488c-0.039-0.031-0.116-0.076-0.224-0.138c-0.029,0.293-0.051,0.578-0.065,0.87
						C483.765,967.401,483.759,967.686,483.761,967.963z M483.761,967.963c0.002,0.3,0.011,0.593,0.028,0.885
						c0.017,0.292,0.049,0.585,0.082,0.869c0.016,0.192,0.041,0.392,0.072,0.577c0,0.023,0.008,0.054,0.008,0.077
						c0.024,0.161,0.048,0.315,0.08,0.477c0.008,0.008,0.008,0.015,0.008,0.023c-0.193-1.415-0.193-2.947,0.03-4.488
						c-0.039-0.031-0.116-0.076-0.224-0.138c-0.029,0.293-0.051,0.578-0.065,0.87C483.765,967.401,483.759,967.686,483.761,967.963z
						 M483.761,967.963c0.002,0.3,0.011,0.593,0.028,0.885c0.017,0.292,0.049,0.585,0.082,0.869
						c0.016,0.192,0.041,0.392,0.072,0.577c0,0.023,0.008,0.054,0.008,0.077c0.024,0.161,0.048,0.315,0.08,0.477
						c0.008,0.008,0.008,0.015,0.008,0.023c-0.193-1.415-0.193-2.947,0.03-4.488c-0.039-0.031-0.116-0.076-0.224-0.138
						c-0.029,0.293-0.051,0.578-0.065,0.87C483.765,967.401,483.759,967.686,483.761,967.963z M483.761,967.963
						c0.002,0.3,0.011,0.593,0.028,0.885c0.017,0.292,0.049,0.585,0.082,0.869c0.016,0.192,0.041,0.392,0.072,0.577
						c0,0.023,0.008,0.054,0.008,0.077c0.024,0.161,0.048,0.315,0.08,0.477c0.008,0.008,0.008,0.015,0.008,0.023
						c-0.193-1.415-0.193-2.947,0.03-4.488c-0.039-0.031-0.116-0.076-0.224-0.138c-0.029,0.293-0.051,0.578-0.065,0.87
						C483.765,967.401,483.759,967.686,483.761,967.963z M483.761,967.963c0.002,0.3,0.011,0.593,0.028,0.885
						c0.017,0.292,0.049,0.585,0.082,0.869c0.016,0.192,0.041,0.392,0.072,0.577c0,0.023,0.008,0.054,0.008,0.077
						c0.024,0.161,0.048,0.315,0.08,0.477c0.008,0.008,0.008,0.015,0.008,0.023c-0.193-1.415-0.193-2.947,0.03-4.488
						c-0.039-0.031-0.116-0.076-0.224-0.138c-0.029,0.293-0.051,0.578-0.065,0.87C483.765,967.401,483.759,967.686,483.761,967.963z
						"/>
				</g>
			</g>
			<g>
				<g>
					<path style="fill:#331832;" d="M484.5,966.542c0.189-0.001,0.375-0.086,0.499-0.246c0.215-0.277,0.164-0.676-0.114-0.891
						c-0.089-0.069-2.215-1.673-5.642-0.871c-0.341,0.08-0.553,0.422-0.473,0.763c0.079,0.342,0.422,0.554,0.763,0.474
						c2.846-0.667,4.559,0.626,4.576,0.639C484.225,966.5,484.363,966.543,484.5,966.542z"/>
				</g>
			</g>
			<g>
				<path style="fill:#EF8062;" d="M464.823,940.714c0,0-1.774-14.424-14.521-12.708c-12.747,1.715-10.103,8.904-9.357,13.385
					c0.556,3.338,5.737,8.655,11.949,8.167C459.106,949.071,464.823,940.714,464.823,940.714z"/>
			</g>
			<g>
				<path style="fill:#EF8062;" d="M452.505,984.088c-0.094,0-0.189-0.034-0.265-0.102c-0.161-0.146-0.174-0.395-0.028-0.556
					c0.129-0.143,3.213-3.501,8.333-4.747c0.211-0.055,0.425,0.078,0.477,0.289c0.051,0.212-0.079,0.425-0.29,0.476
					c-4.887,1.19-7.906,4.478-7.936,4.51C452.719,984.044,452.612,984.088,452.505,984.088z"/>
			</g>
			<g>
				<path style="fill:#020202;" d="M479.735,979.214c-2.457,0-4.981-1.629-5.128-1.725c-0.098-0.064-0.124-0.194-0.061-0.291
					c0.063-0.098,0.195-0.126,0.292-0.061c0.047,0.031,4.755,3.065,7.336,0.813c0.088-0.074,0.221-0.068,0.297,0.021
					c0.076,0.087,0.068,0.22-0.02,0.297C481.655,978.963,480.699,979.214,479.735,979.214z"/>
			</g>
		</g>
	</g>
</g>
</svg>
