<?xml version="1.0" encoding="utf-8"?>
<!-- Generator: Adobe Illustrator 27.5.0, SVG Export Plug-In . SVG Version: 6.00 Build 0)  -->
<svg version="1.1" id="Layer_1" xmlns="http://www.w3.org/2000/svg" xmlns:xlink="http://www.w3.org/1999/xlink" x="0px" y="0px"
	 viewBox="0 0 2300 2000" style="enable-background:new 0 0 2300 2000;" xml:space="preserve">
<rect x="0" y="0" style="fill:#D5E8FA;" width="2300" height="2000"/>
<g>
	<path style="fill:#FFB27D;" d="M1344.512,991.906c0,0-95.745,191.539-193.001,323.757
		c-38.697,52.623-77.636,95.842-110.869,113.866c-32.531,17.638-60.07,45.044-82.858,75.411
		c-59.019,78.627-86.255,177.068-86.255,177.068l-248.696-376.247c0,0,8.486-367.785,38.347-429.306
		c43.52-89.652,64.543-270.794,81.262-306.856c12.403-26.753,47.824-164.943,51.221-175.098
		c1.475-4.376,13.262-11.085,28.566-11.073c12.283,0,33.136,11.871,38.395,36.267c26.596,123.308-5.416,204.643-5.053,208.257
		c9.381,94.766-18.823,165.112,0.955,183.742c0.737,0.689,2.103,0.362,4.038-0.871c34.285-22.014,247.076-332.243,273.285-338.94
		C1161.532,464.824,1344.512,991.906,1344.512,991.906z"/>
	<path style="fill:#F99746;" d="M946.348,1607.547c0,0-3.387,167.197-13.083,392.385H305.951
		c143.393-305.78,268.055-563.146,268.055-563.146S931.191,1447.695,946.348,1607.547z"/>
	<path style="fill:#FFB27D;" d="M1561.949,343.671l-77.016,112.902l-75.572,110.797c-4.607,5.56-9.941,7.493-15.713,6.936
		c-18.135-1.721-40.572-27.878-58.06-42.359l-1.773-1.456c-23.059-19.075-26.316-53.545-7.241-76.592l115.51-139.628v-0.013
		l34.259-41.407c19.075-23.06,53.545-26.316,76.592-7.241l1.773,1.456C1577.767,286.142,1581.024,320.612,1561.949,343.671z"/>
	<path style="fill:#EFA26F;" d="M1484.933,456.573l-75.572,110.797c-4.607,5.56-9.941,7.493-15.713,6.936l48.436-260.036
		C1442.189,315.727,1450.424,432.402,1484.933,456.573z"/>
	<path style="fill:#EFA26F;" d="M1151.511,1315.663c-38.697,52.623-77.636,95.842-110.869,113.866
		c-32.531,17.638-60.07,45.044-82.858,75.411c-26.211-12.218-56.089-26.554-85.294-40.748
		c-35.563-17.284-36.927-67.781-2.095-86.494c0.34-0.183,0.674-0.368,1-0.555c32.641-18.678,66.087-84.623,66.087-84.623
		L1151.511,1315.663z"/>
	<path style="fill:#FFC197;" d="M791.931,400.224l-20.15,81.352c0,0,17.615,7.206,28.928,1.611
		C812.021,477.591,821.252,404.603,791.931,400.224z"/>
	<g>
		<path style="fill:#2B478B;" d="M1371.421,1354.104H938.119c-42.621,0-77.492-34.872-77.492-77.492V324.188
			c0-42.621,34.872-77.492,77.492-77.492h433.302c42.62,0,77.492,34.872,77.492,77.492v952.425
			C1448.913,1319.232,1414.041,1354.104,1371.421,1354.104z"/>
		<g>
			<path style="fill:#FFFFFF;" d="M1419.758,331.523v930.348c0,31.563-25.64,57.379-56.961,57.379H946.74
				c-31.322,0-56.951-25.816-56.951-57.379V331.523c0-31.563,25.629-57.379,56.951-57.379h416.057
				C1394.118,274.144,1419.758,299.96,1419.758,331.523z"/>
		</g>
		<g>
			<g>
				<path style="fill:#9FC5ED;" d="M929.166,1113.799v-54.456h16.641c8.411,0,14.768,2.28,19.072,6.839
					c4.303,4.56,6.455,11.289,6.455,20.188c0,9.119-2.164,15.97-6.491,20.553c-4.328,4.584-10.807,6.876-19.439,6.876H929.166z
					 M939.443,1104.802h5.595c5.608,0,9.656-1.445,12.142-4.334c2.487-2.889,3.73-7.589,3.73-14.099
					c0-6.168-1.292-10.703-3.876-13.605c-2.585-2.901-6.633-4.353-12.143-4.353h-5.449V1104.802z"/>
				<path style="fill:#9FC5ED;" d="M980.77,1113.799v-54.456h35.365v8.85h-25.162v12.874h18.323v8.704h-18.323v14.739h26.259v9.289
					H980.77z"/>
				<path style="fill:#9FC5ED;" d="M1025.498,1113.799v-54.456h10.423v45.167h22.967v9.289H1025.498z"/>
				<path style="fill:#9FC5ED;" d="M1067.593,1113.799v-54.456h10.313v54.456H1067.593z"/>
				<path style="fill:#9FC5ED;" d="M1101.751,1113.799l-16.274-54.456h10.277l12.435,44.435l12.288-44.435h10.314l-16.238,54.456
					H1101.751z"/>
				<path style="fill:#9FC5ED;" d="M1137.628,1113.799v-54.456h35.365v8.85h-25.162v12.874h18.323v8.704h-18.323v14.739h26.259
					v9.289H1137.628z"/>
				<path style="fill:#9FC5ED;" d="M1182.429,1113.799v-54.456h18.433c6.9,0,12.032,1.335,15.396,4.004
					c3.365,2.67,5.047,6.76,5.047,12.27c0,3.535-0.866,6.486-2.597,8.85c-1.731,2.365-4.218,4-7.46,4.901l12.068,24.43h-11.008
					l-10.496-22.09h-9.363v22.09H1182.429z M1192.449,1083.078h8.924c3.291,0,5.711-0.609,7.259-1.829
					c1.548-1.219,2.322-3.132,2.322-5.742c0-2.584-0.774-4.486-2.322-5.705c-1.548-1.219-3.968-1.829-7.259-1.829h-8.924V1083.078z"
					/>
				<path style="fill:#9FC5ED;" d="M1240.945,1113.799v-21.504l-15.799-32.952h10.789l10.496,22.638l10.313-22.638h10.058
					l-15.58,32.878v21.578H1240.945z"/>
			</g>
			<g>
				<path style="fill:#9FC5ED;" d="M1292.439,1086.699c0-8.801,1.999-15.671,5.997-20.608c3.999-4.937,9.533-7.406,16.604-7.406
					c7.07,0,12.611,2.469,16.622,7.406c4.011,4.937,6.016,11.807,6.016,20.608c0,8.754-2.011,15.611-6.035,20.572
					c-4.023,4.962-9.558,7.442-16.604,7.442c-7.022,0-12.544-2.48-16.568-7.442
					C1294.45,1102.31,1292.439,1095.452,1292.439,1086.699z M1302.825,1086.699c0,6.169,1.036,10.844,3.109,14.026
					c2.072,3.182,5.107,4.773,9.107,4.773c3.998,0,7.034-1.591,9.106-4.773c2.072-3.182,3.109-7.857,3.109-14.026
					c0-6.217-1.037-10.935-3.109-14.153c-2.072-3.218-5.108-4.828-9.106-4.828c-3.999,0-7.034,1.609-9.107,4.828
					C1303.861,1075.764,1302.825,1080.482,1302.825,1086.699z"/>
				<path style="fill:#9FC5ED;" d="M1346.529,1113.799v-54.456h34.378v8.85h-24.028v12.8h18.176v8.851h-18.176v23.955H1346.529z"/>
			</g>
			<g>
				<path style="fill:#9FC5ED;" d="M929.166,1196.078v-65.468h23.391c7.709,0,13.454,1.605,17.235,4.814
					c3.781,3.21,5.672,8.084,5.672,14.62c0,6.391-1.846,11.248-5.54,14.575c-3.693,3.327-9.087,4.991-16.18,4.991h-12.135v26.468
					H929.166z M941.609,1159.234h9.146c4.513,0,7.701-0.704,9.563-2.111c1.861-1.407,2.792-3.766,2.792-7.078
					c0-3.342-0.931-5.716-2.792-7.123c-1.861-1.407-5.049-2.11-9.563-2.11h-9.146V1159.234z"/>
				<path style="fill:#9FC5ED;" d="M986.236,1196.078v-65.468h22.16c8.295,0,14.465,1.605,18.51,4.814
					c4.046,3.21,6.068,8.127,6.068,14.752c0,4.25-1.041,7.797-3.122,10.64c-2.082,2.843-5.071,4.808-8.969,5.892l14.509,29.371
					h-13.234l-12.619-26.557h-11.256v26.557H986.236z M998.283,1159.145h10.729c3.957,0,6.865-0.732,8.727-2.198
					c1.861-1.465,2.792-3.766,2.792-6.903c0-3.106-0.931-5.393-2.792-6.859c-1.862-1.465-4.77-2.198-8.727-2.198h-10.729V1159.145z"
					/>
				<path style="fill:#9FC5ED;" d="M1042.34,1163.498c0-10.581,2.403-18.84,7.21-24.776c4.807-5.936,11.46-8.903,19.962-8.903
					c8.5,0,15.161,2.968,19.983,8.903c4.822,5.936,7.233,14.195,7.233,24.776c0,10.524-2.418,18.768-7.255,24.732
					c-4.836,5.965-11.491,8.947-19.961,8.947c-8.442,0-15.081-2.982-19.918-8.947
					C1044.758,1182.266,1042.34,1174.021,1042.34,1163.498z M1054.826,1163.498c0,7.416,1.245,13.037,3.737,16.862
					c2.491,3.825,6.14,5.738,10.948,5.738c4.807,0,8.456-1.913,10.947-5.738c2.491-3.825,3.738-9.446,3.738-16.862
					c0-7.474-1.247-13.146-3.738-17.015c-2.491-3.869-6.141-5.804-10.947-5.804c-4.808,0-8.457,1.935-10.948,5.804
					C1056.072,1150.352,1054.826,1156.024,1054.826,1163.498z"/>
				<path style="fill:#9FC5ED;" d="M1107.456,1196.078v-65.468h20.005c10.113,0,17.755,2.741,22.929,8.222
					c5.173,5.482,7.76,13.572,7.76,24.271c0,10.963-2.601,19.199-7.804,24.71c-5.203,5.511-12.993,8.266-23.369,8.266H1107.456z
					 M1119.811,1185.262h6.727c6.742,0,11.608-1.737,14.598-5.21c2.99-3.473,4.484-9.123,4.484-16.949
					c0-7.415-1.554-12.868-4.66-16.356c-3.107-3.488-7.974-5.233-14.598-5.233h-6.551V1185.262z"/>
				<path style="fill:#9FC5ED;" d="M1169.142,1172.028v-41.418h12.311v41.945c0,4.866,0.982,8.384,2.946,10.553
					c1.963,2.169,5.129,3.254,9.497,3.254c4.631,0,7.936-1.048,9.915-3.144c1.978-2.095,2.968-5.65,2.968-10.662v-41.945h11.959
					v43.396c0,7.446-2.147,13.169-6.441,17.17c-4.294,4.001-10.428,6.001-18.401,6.001c-8.325,0-14.531-2.073-18.62-6.222
					C1171.187,1186.808,1169.142,1180.499,1169.142,1172.028z"/>
				<path style="fill:#9FC5ED;" d="M1267.895,1176.556l11.344,3.122c-1.613,5.658-4.485,9.989-8.618,12.993
					c-4.132,3.005-9.292,4.506-15.476,4.506c-8.501,0-14.92-2.828-19.258-8.486c-4.338-5.657-6.507-13.996-6.507-25.017
					c0-10.816,2.3-19.163,6.903-25.04c4.601-5.877,11.124-8.816,19.566-8.816c5.892,0,10.728,1.466,14.51,4.397
					c3.781,2.932,6.301,7.167,7.563,12.707l-11.344,2.77c-0.821-3.136-2.191-5.51-4.111-7.123c-1.919-1.612-4.36-2.418-7.32-2.418
					c-4.456,0-7.782,1.956-9.98,5.87c-2.199,3.913-3.297,9.827-3.297,17.74c0,7.68,1.099,13.352,3.297,17.016
					c2.198,3.664,5.613,5.496,10.245,5.496c3.018,0,5.642-0.872,7.87-2.616C1265.505,1181.913,1267.044,1179.547,1267.895,1176.556z
					"/>
				<path style="fill:#9FC5ED;" d="M1300.694,1196.078v-54.652h-17.192v-10.816h46.826v10.816h-17.192v54.652H1300.694z"/>
				<path style="fill:#9FC5ED;" d="M1334.55,1181.305l11.168-4.968c1.729,3.488,3.656,6.031,5.782,7.628
					c2.125,1.598,4.638,2.397,7.54,2.397c3.283,0,5.877-0.748,7.783-2.243c1.905-1.495,2.858-3.517,2.858-6.067
					c0-2.023-0.704-3.716-2.11-5.079c-1.407-1.363-3.943-2.718-7.606-4.067c-0.499-0.205-1.217-0.468-2.155-0.791
					c-6.419-2.345-10.889-4.338-13.41-5.98c-2.492-1.582-4.397-3.605-5.716-6.068c-1.319-2.462-1.978-5.246-1.978-8.354
					c0-5.276,1.971-9.563,5.914-12.861c3.941-3.297,9.094-4.946,15.455-4.946c5.568,0,10.207,1.202,13.916,3.605
					c3.708,2.404,6.426,5.965,8.156,10.684l-11.168,4.089c-1.378-2.931-3.005-5.063-4.881-6.397
					c-1.876-1.333-4.192-2.001-6.946-2.001c-2.668,0-4.771,0.623-6.31,1.869s-2.308,2.939-2.308,5.078
					c0,3.313,3.766,6.449,11.3,9.41c2.315,0.909,4.133,1.641,5.451,2.198c6.302,2.668,10.589,5.394,12.861,8.178
					c2.272,2.785,3.408,6.42,3.408,10.905c0,6.039-1.978,10.788-5.936,14.245c-3.957,3.459-9.395,5.188-16.312,5.188
					c-6.009,0-11.102-1.319-15.279-3.957C1339.848,1190.362,1336.689,1186.464,1334.55,1181.305z"/>
			</g>
		</g>
		<path style="fill:#2B478B;" d="M1241.719,308.742h-173.89c-14.165,0-25.753-11.589-25.753-25.753v-4.049
			c0-14.165,11.589-25.754,25.753-25.754h173.89c14.164,0,25.753,11.589,25.753,25.754v4.049
			C1267.472,297.153,1255.883,308.742,1241.719,308.742z"/>
	</g>
	<g>
		<path style="fill:#FFB27D;" d="M1523.611,770.029l-11.485,4.364l-77.229,29.349c-1.81,0.688-3.642,1.275-5.474,1.735
			c-25.573,6.647-52.782-6.985-62.371-32.22l-1.132-2.966c-10.276-27.044,3.439-57.581,30.484-67.857l71.999-27.357l5.23-1.992
			l11.485-4.365c27.044-10.275,57.568,3.441,67.844,30.486l1.133,2.966C1564.371,729.217,1550.655,759.753,1523.611,770.029z"/>
		<path style="fill:#FFD3B6;" d="M1460.894,771.801c-12.889,4.884-36.224,13.552-48.703,15.345
			c-3.529,0.508-10.037-1.412-16.106-8.061c-3.643-3.981-7.129-9.655-9.713-17.519c-1.214-3.699-2.216-7.383-2.64-11.18
			c-0.479-4.447-0.353-8.894,0.424-13.298c0.706-3.967,3.416-7.581,7.368-9.486c0.015-0.014,0.043-0.014,0.058-0.028
			c13.27-6.338,31.154-14.06,46.839-18.366c10.841-2.993,21.81,1.793,25.24,11.279l1.623,4.433l8.287,22.7
			C1477.001,757.049,1471.425,767.834,1460.894,771.801z"/>
		<path style="fill:#FFC197;" d="M1460.894,771.801c-12.889,4.884-36.224,13.552-48.703,15.345
			c-3.529,0.508-10.037-1.412-16.106-8.061c-0.65-1.51-1.242-3.106-1.808-4.814c-1.214-3.699-2.216-7.383-2.64-11.181
			c-0.479-4.446-0.352-8.893,0.424-13.298c0.706-3.967,3.416-7.581,7.368-9.486c0.015-0.014,0.043-0.014,0.057-0.028
			c13.27-6.338,31.156-14.06,46.84-18.366c6.945-1.92,13.933-0.649,18.958,3.007l8.287,22.7
			C1477.001,757.049,1471.425,767.834,1460.894,771.801z"/>
	</g>
	<g>
		<path style="fill:#FFB27D;" d="M1488.566,878.608l-59.556,16.214c-18.097,4.927-36.935-5.849-41.861-23.946l-1.835-6.741
			c-4.928-18.097,5.848-36.935,23.945-41.861l59.556-16.214c18.098-4.927,36.935,5.849,41.861,23.945l1.836,6.741
			C1517.439,854.843,1506.664,873.681,1488.566,878.608z"/>
		<path style="fill:#FFD3B6;" d="M1456.363,875.685c-10.941,2.922-30.718,8.075-41.08,8.64c-3.77,0.212-11.321-2.979-16.248-12.889
			c-1.214-2.4-2.244-5.181-3.049-8.399c-0.721-2.922-1.271-5.816-1.327-8.752c-0.071-3.459,0.367-6.86,1.327-10.192
			c0.86-3.007,3.359-5.604,6.733-6.804c0.028-0.014,0.042-0.014,0.057-0.028c11.35-4.009,26.595-8.795,39.78-11.096
			c9.105-1.595,17.745,2.781,19.877,10.291l1.538,5.364l4.588,16.107C1470.677,865.38,1465.299,873.314,1456.363,875.685z"/>
		<path style="fill:#FFC197;" d="M1456.363,875.685c-10.941,2.922-30.718,8.075-41.08,8.64c-3.77,0.212-11.321-2.979-16.248-12.889
			c-0.664-2.725-1.144-5.449-1.2-8.216c-0.07-3.444,0.367-6.861,1.327-10.192c0.861-2.993,3.359-5.604,6.733-6.804
			c0.028-0.014,0.043-0.014,0.057-0.028c11.35-4.01,26.596-8.795,39.781-11.082c7.538-1.327,14.766,1.454,18.238,6.706l4.588,16.107
			C1470.677,865.38,1465.299,873.314,1456.363,875.685z"/>
	</g>
	<path style="fill:#ED7D2B;" d="M512.935,1563.643c0,0,122.586,117.408,205.225,162.74l62.568-44.379v65.467
		c0,0,123.051,21.761,161.865,0v-178.531l-345.618-173.26L512.935,1563.643z"/>
	<path style="fill:#FFFFFF;" d="M968.701,1733.264c-47.609,9.763-150.223-27.637-150.223-27.637l16.55-159.861l-115.955,132.798
		c-59.01-21.959-151.3-79.264-206.135-114.923c-27.3-17.763-45.321-30.15-45.321-30.15
		c77.378-124.516,155.216-240.976,155.216-240.976c22.845,45.702,76.918,85.39,135.535,117.133
		c97.407,52.76,207.358,83.583,207.358,83.583C965.694,1588.236,968.701,1733.264,968.701,1733.264z"/>
	<g>
		<path style="fill:#FFB27D;" d="M1521.732,655.889c-0.424,0.155-0.848,0.296-1.285,0.438l-78.079,20.045
			c-34.332,8.823-69.835-9.754-78.898-41.277l-4.645-16.15c-8.71-30.266,10.009-61.916,41.913-72.178l25.777-6.621l52.302-13.425
			c34.332-8.823,69.835,9.755,78.897,41.277l4.645,16.149C1570.942,614.005,1552.845,645.188,1521.732,655.889z"/>
		<path style="fill:#FFD3B6;" d="M1485.951,634.093l-37.932,17.095c-0.056,0.014-0.127,0.028-0.239,0.057
			c-1.524,0.41-3.063,0.72-4.588,0.946c-0.636,0.099-1.285,0.169-1.921,0.24c-0.268,0.028-0.536,0.028-0.804,0.014
			c-4.179-0.141-7.045-4.574-5.237-8.526c3.585-7.807,4.56-16.841,2.146-25.721l-0.903-3.303c0-0.028-0.015-0.071-0.028-0.099
			l-2.937-10.771c-2.329-8.583-7.284-15.768-13.75-20.963c-0.775-0.635-1.581-1.228-2.399-1.793
			c-7.496-5.195-5.59-16.954,3.19-19.397c0.085-0.028,0.155-0.042,0.24-0.07l41.63-6.296c10.291-2.795,20.201,5.125,23.011,15.416
			l3.345,12.268l7.115,26.158C1498.684,619.651,1496.242,631.298,1485.951,634.093z"/>
		<path style="fill:#FFC197;" d="M1485.951,634.093l-37.932,17.095c-0.056,0.014-0.127,0.028-0.239,0.057
			c-0.89,0.169-3.671,0.635-7.313,1.2c-4.179-0.141-7.045-4.574-5.237-8.526c3.585-7.807,4.56-16.841,2.146-25.721l-0.903-3.303
			c0-0.028-0.015-0.071-0.028-0.099l-2.937-10.771c-2.329-8.583-7.284-15.768-13.75-20.963c1.342-1.962,3.347-3.515,5.972-4.249
			c0.071-0.028,0.155-0.042,0.24-0.07l41.63-6.296c8.668-2.357,17.053,2.894,21.175,10.743l7.115,26.158
			C1498.684,619.651,1496.242,631.298,1485.951,634.093z"/>
	</g>
	<path style="fill:#EFA26F;" d="M860.624,1062.022c0,0-17.034-148.695-32.75-177.685c-15.716-29.001-29.014-87.065-4.835-130.211
		c24.178-43.158,32.532-126.173,32.532-126.173c9.381,94.766-18.823,165.112,0.955,183.742c0.737,0.689,2.103,0.362,4.038-0.871
		L860.624,1062.022z"/>
	<g>
		<path style="fill:#F7FAFF;" d="M221.449,983.336h288.916c23.03,0,41.874,18.843,41.874,41.875v126.752
			c0,21.154-17.308,38.462-38.462,38.462h-7.422l13.92,58.793l-87.391-58.793H218.955c-23.011,0-41.838-18.827-41.838-41.839
			v-120.918C177.117,1003.286,197.066,983.336,221.449,983.336z"/>
		<path style="fill:#CBE1FD;" d="M213.696,1075.341h301.249c4.103,0,7.46-3.357,7.46-7.46l0,0c0-4.104-3.357-7.461-7.46-7.461
			H213.696c-4.102,0-7.46,3.357-7.46,7.461l0,0C206.236,1071.983,209.594,1075.341,213.696,1075.341z"/>
		<path style="fill:#CBE1FD;" d="M213.696,1108.734h301.249c4.103,0,7.46-3.357,7.46-7.461l0,0c0-4.103-3.357-7.46-7.46-7.46
			H213.696c-4.102,0-7.46,3.357-7.46,7.46l0,0C206.236,1105.377,209.594,1108.734,213.696,1108.734z"/>
		<path style="fill:#CBE1FD;" d="M213.696,1142.127h301.249c4.103,0,7.46-3.357,7.46-7.46l0,0c0-4.104-3.357-7.46-7.46-7.46H213.696
			c-4.102,0-7.46,3.356-7.46,7.46l0,0C206.236,1138.77,209.594,1142.127,213.696,1142.127z"/>
		<path style="fill:#CBE1FD;" d="M377.82,1032.355h127.889c4.885,0,8.881-3.996,8.881-8.881l0,0c0-4.885-3.996-8.881-8.881-8.881
			H377.82c-4.884,0-8.881,3.996-8.881,8.881l0,0C368.939,1028.359,372.936,1032.355,377.82,1032.355z"/>
		<path style="fill:#CBE1FD;" d="M267.914,1032.355h76.954c3.861,0,7.02-3.158,7.02-7.019v-3.723c0-3.861-3.159-7.019-7.02-7.019
			h-76.954c-3.861,0-7.02,3.158-7.02,7.019v3.723C260.894,1029.197,264.053,1032.355,267.914,1032.355z"/>
	</g>
	<g>
		<polygon style="fill:#9EC3F6;" points="1673.144,1047.622 1854.859,1107.033 1746.01,1000.941 1734.96,1026.862 1688.184,1027.09 
					"/>
		<polygon style="fill:#FFFFFF;" points="1854.859,1107.033 1713.828,999.746 1563.147,965.33 		"/>
		<polygon style="fill:#FFFFFF;" points="1746.01,1000.941 1854.859,1107.033 1782.305,958.405 		"/>
	</g>
	<g>
		<polygon style="fill:#9EC3F6;" points="520.709,316.77 350.856,340.999 463.572,264.172 469.305,288.801 510.61,296.282 		"/>
		<polygon style="fill:#FFFFFF;" points="350.856,340.999 492.201,268.124 630.734,261.156 		"/>
		<polygon style="fill:#FFFFFF;" points="463.572,264.172 350.856,340.999 438.114,220.928 		"/>
	</g>
	<g>
		<path style="fill:#FFFFFF;" d="M970.019,332.341l-5.929,4.254l-5.959-4.208c1.321-1.858,3.502-3.087,5.959-3.087
			C966.533,329.3,968.698,330.498,970.019,332.341z"/>
		<g>
			<path style="fill:#FFFFFF;" d="M964.088,318.93c-5.96,0-11.23,2.97-14.42,7.5l3.76,2.64c2.37-3.35,6.27-5.53,10.66-5.53
				c4.36,0,8.24,2.15,10.6,5.45l3.75-2.69C975.228,321.83,969.988,318.93,964.088,318.93z"/>
		</g>
		<g>
			<path style="fill:#FFFFFF;" d="M964.088,299.22c-12.61,0-23.76,6.27-30.52,15.86l3.77,2.64c5.92-8.39,15.71-13.89,26.75-13.89
				c10.95,0,20.68,5.41,26.62,13.69l3.731-2.69C987.668,305.38,976.598,299.22,964.088,299.22z"/>
		</g>
		<g>
			<path style="fill:#FFFFFF;" d="M964.088,310.01c-8.97,0-16.92,4.44-21.76,11.24l3.76,2.64c4.01-5.6,10.58-9.27,18-9.27
				c7.36,0,13.89,3.61,17.91,9.13l3.73-2.67C980.878,314.37,972.988,310.01,964.088,310.01z"/>
		</g>
	</g>
	<g>
		<path style="fill:#FFB27D;" d="M2064.14,2000h-460.061c-22.06-14.79-136.63-92.939-184.04-151.2
			c-10.04-12.35-46.79-118.75-75.029-205.14c-17.63-53.96-31.95-100.141-34.37-110.73c-0.84-3.689-1.4-11-1.74-20.899v-0.101
			c-1.2-35.33,0.439-103.46,2.13-157.58l0.01-0.25l0.03-0.71c0.08-2.38,0.15-4.72,0.23-7.04v-0.08c0.01-0.229,0.01-0.47,0.02-0.699
			c0.311-9.4,0.61-18.26,0.89-26.32c0.71-20.14,1.311-35.29,1.561-41.22l0.1-2.761c0,0,0.011,0,0.021-0.01
			c0.729-0.41,22.859-12.22,52.439,9.09c7.141,5.15,13.74,17.59,19.76,33.82c3.851,10.36,7.461,22.26,10.82,34.8
			c12.92,48.23,22.19,105.891,27.141,121.33c7.979,24.95,102.039,134.67,107.92,141.49c0.09,0.12,0.189,0.229,0.279,0.34v-173.27
			l-71.01-190l-29.15-78l-14.649-39.2c0,0-22.47-36.891-41.32-81.271c-8.25-19.42-15.81-40.27-20.489-60.09
			c-1.12-4.72-2.07-9.39-2.83-13.96c0-0.01,0-0.01,0-0.02c-2.771-16.75-2.961-32.29,0.89-44.94c6.87-22.53,22.35-26.77,34.24-26.31
			c1.229,0.04,2.42,0.15,3.569,0.28c1.16,0.14,2.311,0.36,3.42,0.66c2.091,0.55,4.07,1.39,5.91,2.46c0.021,0,0.021,0.01,0.03,0.02
			c3.05,1.78,5.68,4.23,7.72,7.22c0,0,10.04,13.11,23.51,30.73c8.86,11.6,19.211,25.15,29.15,38.21
			c17.7,23.27,34.141,44.98,38.66,51.34c24.43,34.39,90.21,146.46,90.21,146.46l77,3.229c12.2,0.51,23.81,5.37,32.729,13.7
			c27.381,25.57,86.41,80.9,93.65,89.13c0,2.697,45.875,24.756,81.311,44.4c25.349,10.711,73.5,48.67,73.5,48.67
			c9.979,8.81,17.58,17.58,21.43,25.96c16.51,35.93,61.29,348.42,82.7,502.899C2059.32,1964.1,2063.789,1997.43,2064.14,2000z"/>
		<path style="fill:#EFA26F;" d="M1590.113,1186.445c0,0,71.333,116.44,80.773,121.686c9.441,5.245,46.157,12.588,50.354,0
			C1725.435,1295.543,1590.113,1186.445,1590.113,1186.445z"/>
		<path style="fill:#EFA26F;" d="M1948.659,1385.901c-0.121-0.106-0.238-0.214-0.359-0.321c0,0-48.151-37.959-73.5-48.67
			c-32.534-18.036-73.862-38.104-80.413-43.357c7.554,8.634,60.678,68.755,81.12,73.26
			C1893.459,1370.771,1934.233,1381.922,1948.659,1385.901z"/>
		<path style="fill:#EFA26F;" d="M1532.249,1616.132v-173.276c0,0,41.163,68.857,44.31,106.622
			C1579.706,1587.231,1559.46,1648.368,1532.249,1616.132z"/>
		<path style="fill:#FFD3B6;" d="M1382.899,980.292c-6.021-10.32-16.797-29.033-20.503-39.501c-1.049-2.96-0.916-8.881,2.723-15.192
			c2.177-3.785,5.609-7.71,10.8-11.211c2.442-1.646,4.914-3.107,7.58-4.087c3.124-1.134,6.366-1.745,9.702-1.79
			c3.007-0.034,6.145,1.717,8.286,4.816c0.013,0.01,0.019,0.034,0.031,0.044c7.147,10.413,16.187,24.582,22.329,37.406
			c4.259,8.862,2.914,19.093-3.288,23.587l-2.894,2.118l-14.823,10.821C1396.681,991.789,1387.802,988.729,1382.899,980.292z"/>
		<path style="fill:#FFC197;" d="M1382.899,980.292c-6.021-10.32-16.797-29.033-20.503-39.501c-1.049-2.96-0.916-8.881,2.723-15.192
			c0.967-0.805,2.007-1.574,3.134-2.337c2.441-1.646,4.914-3.107,7.579-4.087c3.125-1.134,6.367-1.745,9.703-1.789
			c3.007-0.034,6.145,1.717,8.286,4.816c0.013,0.01,0.019,0.035,0.031,0.044c7.147,10.413,16.187,24.582,22.329,37.405
			c2.73,5.677,3.16,11.907,1.484,16.832l-14.823,10.821C1396.681,991.789,1387.802,988.729,1382.899,980.292z"/>
		<path style="fill:#EFA26F;" d="M1832.999,1928.85L1695.57,2000h-91.49c-22.06-14.79-136.63-92.939-184.04-151.2
			c-10.04-12.35-46.79-118.75-75.029-205.14v-0.04c3.75,11.47,82.56,179.319,105,198.399c22.439,19.07,140.26,130.16,172.8,129.03
			c31.52-1.08,199.32-39.7,209.72-42.09C1832.69,1928.93,1832.839,1928.89,1832.999,1928.85z"/>
		<path style="fill:#FFFFFF;" d="M2109.52,2000h-495.46c24.85-9.75,119.92-46.07,218.47-71.04c0.16-0.03,0.31-0.07,0.47-0.11
			c84.641-21.41,171.771-34.39,219.09-14.92l0.341,0.51L2109.52,2000z"/>
		<path style="fill:#EFA26F;" d="M1311.314,1345.566c0.012,0,0.022,0,0.033-0.012c8.349-3.063,20.074-5.082,25.774,4.444
			c8.876,14.822-24.102,145.577-28.22,162.026L1311.314,1345.566z"/>
		<path style="fill:#FFC197;" d="M1313.872,1275.262l-2.835,79.089c0,0,16.63,2.706,26.086-4.352
			S1341.573,1274.333,1313.872,1275.262z"/>
	</g>
	<path style="fill:#F2F7FF;" d="M968.701,1733.264c-47.609,9.763-150.223-27.637-150.223-27.637l16.55-159.861l-115.955,132.798
		c-59.01-21.959-151.3-79.264-206.135-114.923c140.517-15.316,245.43-153.993,245.43-153.993
		c97.407,52.76,207.358,83.583,207.358,83.583C965.694,1588.236,968.701,1733.264,968.701,1733.264z"/>
	<path style="fill:#F99746;" d="M641.986,1588.063c0.099-10.659,8.819-19.221,19.479-19.122c10.659,0.099,19.22,8.819,19.121,19.479
		c-0.099,10.659-8.819,19.22-19.478,19.121C650.449,1607.441,641.888,1598.721,641.986,1588.063z"/>
	<g>
		<g>
			<g>
				<g>
					<g>
						<path style="fill:#A8D29F;" d="M1149.505,589.098c-0.034,0.656-0.057,1.001-0.057,1.001s-0.107-0.334-0.316-0.972
							c-1.713-5.28-10.08-31.341-17.694-60.358c-10.532-40.148-19.622-85.949-7.66-90.183
							c22.658-8.027,26.835,56.118,26.897,103.451C1150.714,565.355,1149.747,584.587,1149.505,589.098z"/>
						<path style="fill:#A8D29F;" d="M1171.676,536.971c-8.186,18.163-15.292,33.444-19.368,42.596
							c-1.775,3.991-2.974,6.812-3.437,8.202c0.396-2.261,1.464-8.327,2.99-16.959c0,0,0-0.006,0-0.011
							c2.29-12.934,5.614-31.617,9.26-51.906c8.853-49.312,19.628-108.064,22.143-116.464c4.437-14.817,24.89-46.361,38.656-18.915
							C1230.863,401.349,1196.351,482.227,1171.676,536.971z"/>
						<path style="fill:#A8D29F;" d="M1173.326,562.885c-8.463,8.932-15.574,16.174-19.548,20.176
							c-2.171,2.193-3.404,3.414-3.404,3.414s2.166-4.619,5.857-11.996c3.488-6.97,8.333-16.399,13.997-26.716
							c18.559-33.817,45.88-77.159,62.822-74.654C1252.384,475.963,1204,530.51,1173.326,562.885z"/>
						<path style="fill:#82B378;" d="M1149.505,589.098c-0.119,0.006-0.243,0.017-0.373,0.028
							c-1.713-5.28-10.08-31.341-17.694-60.358c3.55,5.32,9.972,12.454,19.237,13.268
							C1150.714,565.355,1149.747,584.587,1149.505,589.098z"/>
						<path style="fill:#82B378;" d="M1171.676,536.971c-8.186,18.163-15.292,33.444-19.368,42.596
							c-0.311-2.555-0.447-5.518-0.447-8.757c0,0,0-0.006,0-0.011c2.29-12.934,5.614-31.617,9.26-51.906
							C1162.546,525.976,1165.514,533.823,1171.676,536.971z"/>
						<path style="fill:#82B378;" d="M1173.326,562.885c-8.463,8.932-15.574,16.174-19.548,20.176
							c0.384-2.301,1.277-5.286,2.453-8.581c3.488-6.97,8.333-16.399,13.997-26.716
							C1170.359,552.088,1170.975,558.532,1173.326,562.885z"/>
					</g>
					<path style="fill:#A8D29F;" d="M1148.865,587.781c-0.113,0.633-0.169,0.967-0.169,0.967
						C1148.611,588.703,1148.668,588.375,1148.865,587.781z"/>
					<path style="fill:#ED7D2B;" d="M1160.228,652.983c-14.195,40.216-31.872,84.067-31.872,84.067l-39.933-11.968
						c0,0,4.675-29.786,11.538-62.93c8.005-38.644,12.573-77.637,28.995-87.781c4.519-2.792,9.401-4.087,14.172-4.438
						c2.408-0.181,4.805-0.102,7.146,0.209c0.56,0.073,1.108,0.158,1.662,0.254c1.385,0.249,2.747,0.571,4.076,0.967
						c0.52,0.147,1.035,0.311,1.543,0.492c1.77,0.599,3.477,1.323,5.105,2.148c6.914,3.516,12.482,8.806,14.664,14.523
						C1183.882,605.713,1170.958,622.598,1160.228,652.983z"/>
				</g>
				<g>
					<path style="fill:#FFB93E;" d="M1140.717,702.25c-10.492,31.824-13.609,66.747-9.3,104.008
						c0.72,6.214,4.182,11.611,9.183,14.921c2.24,1.483,4.787,2.545,7.537,3.083c6.165-0.033,18.323-11.236,25.278-25.534
						c1.911-3.932,3.432-8.095,4.323-12.331c6.971-33.071,19.879-72.894,35.894-93.247c16.375-20.814,38.436-45.694,68.765-62.805
						c0,0,0.003-0.005,0.011-0.006c2.926-1.676,71.745-51.79,71.745-51.79c6.848-7.239-1.262-15.349-1.262-15.349
						s-6.536,5.731-26.476,17.214c-19.937,11.478-54.95-1.975-54.95-1.975c-9.822-4.437-21.466-3.986-31.104,1.865
						c-14.875,9.028-34.679,23.268-53.464,43.768C1165.76,647.136,1150.221,673.44,1140.717,702.25z"/>
					<path style="fill:#FFA412;" d="M1177.736,786.396c6.971-33.071,19.879-72.894,35.894-93.247
						c16.375-20.814,38.436-45.694,68.765-62.805c0,0,0.003-0.005,0.011-0.006c0.528-0.384,21.046-15.515-1.695-29.216
						c-22.257-13.408-113.1,86.482-107.297,197.606C1175.324,794.795,1176.845,790.632,1177.736,786.396z"/>
				</g>
				<g>
					<path style="fill:#A8D29F;" d="M1094.438,657.054c-2.874,4.516-6.401,8.887-10.564,12.987
						c-15.774,15.537-40.533,27.061-72.404,26.76c0,0-13.38-12.755-19.868-28.986l0.006-0.006
						c-4.499-11.258-7.783-27.835-0.006-40.14c5.013-7.927,11.46-11.68,17.994-13.658c11.102-3.377,22.452-1.636,27.413-6.58
						c4.892-4.874,11.854-9.084,19.498-11.507c1.249-0.399,2.515-0.752,3.799-1.041h0.006c0.532-0.127,1.058-0.243,1.596-0.347
						l0.034-0.006c11.784-2.301,24.372-0.046,33.126,10.46c2.03,2.434,3.874,5.377,5.441,8.916
						C1106.118,626.512,1103.707,642.5,1094.438,657.054z"/>
					<path style="fill:#D1F2C9;" d="M1001.739,625.844c0,0-10.518,8.257-7.295,17.392c3.223,9.135,11.535,4.915,14.135-1.412
						C1011.18,635.497,1008.653,622.777,1001.739,625.844z"/>
					<path style="fill:#95C38B;" d="M1095.067,604.989c2.031,2.435,3.875,5.383,5.444,8.92c5.609,12.605,13.307,46.039,4.041,60.596
						l-12.432,11.372c-15.773,15.538-48.778,11.224-80.649,10.922c0,0-13.379-12.754-19.868-28.984l0.005-0.005
						c0,0,39.425,15.598,76.559-16.966C1085.031,636.05,1092.23,619.095,1095.067,604.989z"/>
					<g>
						<path style="fill:#A8D29F;" d="M1034.935,588.361c-6.508-3.876-13.093,1.569-20.736,4.557
							c-7.648,2.993-22.359,2.932-22.359,2.932s6.051-8.71,15.968-17.363C1017.726,569.834,1034.935,588.361,1034.935,588.361z"/>
						<path style="fill:#82B378;" d="M1034.935,588.361c-6.115-5.021-17.428-7.899-22.947-5.641
							c-5.519,2.259-20.148,13.13-20.148,13.13s6.051-8.71,15.968-17.363C1017.726,569.834,1034.935,588.361,1034.935,588.361z"/>
					</g>
					<path style="fill:#95C38B;" d="M1037.01,607.431c4.892-4.874,11.854-9.084,19.498-11.507
						c-12.998,4.874-20.168,21.348-25.101,19.44c-5.291-2.052-21.203-1.382-21.81-1.353
						C1020.698,610.635,1032.049,612.375,1037.01,607.431z"/>
					<path style="fill:#95C38B;" d="M1061.908,594.537c-0.411,0.116-0.937,0.231-1.596,0.347
						C1060.844,594.757,1061.37,594.641,1061.908,594.537z"/>
					<g>
						<path style="fill:#82B378;" d="M1032.326,615.034L1032.326,615.034c-4.169-9.211-1.916-20.636,0.709-28.598
							c2.089-6.337,6.094-14.892,8.061-18.958c0.416-0.859,1.663-0.772,1.963,0.134l0.793,2.4c0.794,2.405,0.504,5.035-0.807,7.202
							c-4.029,6.661-12.121,22.229-8.476,35.045C1034.978,613.701,1033.065,616.683,1032.326,615.034z"/>
					</g>
				</g>
			</g>
			<g>
				<g>
					<path style="fill:#2B478B;" d="M1118.131,656.549l-1.298-0.52c5.741-8.543,14.648-14.401,21.662-17.112
						c6.141-2.372,11.055-3.151,12.811-3.379c0.428-0.056,0.851,0.108,1.132,0.435l1.089,1.267c0.538,0.626,0.164,1.628-0.654,1.745
						C1146.598,639.883,1126.801,643.648,1118.131,656.549z"/>
				</g>
				<path style="fill:#699DEE;" d="M1093.708,658.99c6.584-16.447,15.85-12.737,27.281-8.161
					c11.43,4.576,20.697,8.285,14.113,24.732c-4.719,11.787-17.81,17.633-29.24,13.057
					C1094.43,684.042,1088.989,670.777,1093.708,658.99z"/>
				<path style="fill:#92BEFF;" d="M1100.642,655.591c0.412-2.948,5.157-6.051,8.105-5.639c2.948,0.412,4.319,3.706,3.907,6.654
					c-0.412,2.948-4.473,5.481-7.421,5.069C1102.285,661.262,1100.23,658.538,1100.642,655.591z"/>
			</g>
			<path style="fill:#FCECDB;" d="M1252.394,663.131l35.303,251.482c4.379,31.19-19.84,59.046-51.336,59.046h-53.189
				c-26.859,0-47.769-23.322-44.848-50.021l29.876-233.933L1252.394,663.131z"/>
			<path style="fill:#FCECDB;" d="M1066.991,663.131c0,0,85.571,29.176,185.403,0l-29.415,311.322h-186.293L1066.991,663.131z"/>
			<path style="fill:#EFCBAB;" d="M1066.991,663.131l35.304,252.125c4.378,31.27-19.84,59.197-51.336,59.197h-53.189
				c-26.859,0-47.769-23.382-44.848-50.15l25.288-261.172c0,0,12.458,2.432,42.764,2.432
				C1050.988,665.563,1066.991,663.131,1066.991,663.131z"/>
			<path style="fill:#ED7D2B;" d="M1225.325,691.168c0-3.661-2.967-6.628-6.628-6.628s-6.628,2.968-6.628,6.628
				c0,2.448,1.331,4.58,3.305,5.728c2.811,22.31-1.623,40.544-12.686,51.716c-10.057,10.155-25.312,13.919-44.113,10.885
				c-16.532-2.668-27.411-20.961-33.628-35.838c-4.471-10.699-7.232-21.235-8.651-27.49c1.4-1.215,2.288-3.003,2.288-5.002
				c0-3.661-2.967-6.628-6.628-6.628s-6.628,2.968-6.628,6.628c0,2.468,1.352,4.617,3.353,5.758
				c3.563,16.353,16.759,64.899,48.686,70.051c4.647,0.75,9.11,1.122,13.378,1.122c15.312,0,28.058-4.797,37.326-14.156
				c12.684-12.809,17.875-33.14,14.857-57.675C1224.393,695.053,1225.325,693.22,1225.325,691.168z"/>
		</g>
	</g>
	<g>
		<path style="fill:#FFFFFF;" d="M1953.695,531.178c0.317-2.67,0.218-5.066-0.293-7.19c-0.512-2.125-1.526-4.115-3.04-5.971
			c-1.516-1.857-3.542-3.644-6.079-5.365c-2.539-1.719-5.678-3.478-9.422-5.277c-6.43-3.149-12.23-6.337-17.399-9.56
			c-5.172-3.226-9.507-6.754-13.009-10.588c-3.502-3.833-6.063-8.134-7.684-12.905c-1.621-4.771-2.062-10.271-1.322-16.504
			c0.641-5.404,2.184-10.218,4.629-14.443c2.444-4.222,5.643-7.776,9.595-10.661c3.951-2.884,8.531-5.065,13.74-6.543
			c5.208-1.476,10.927-2.138,17.155-1.978l2.422-20.411l16.429,1.949l-2.456,20.697c5.795,1.462,10.95,3.654,15.463,6.574
			c4.511,2.921,8.223,6.457,11.133,10.606c2.907,4.151,4.966,8.893,6.173,14.226c1.205,5.335,1.432,11.182,0.678,17.539
			l-29.674-3.521c0.905-7.63-0.112-13.538-3.051-17.724c-2.94-4.183-7.251-6.616-12.932-7.289c-3.08-0.366-5.785-0.251-8.11,0.345
			c-2.327,0.592-4.297,1.554-5.913,2.875c-1.615,1.326-2.886,2.963-3.811,4.917c-0.926,1.954-1.528,4.107-1.807,6.46
			c-0.279,2.353-0.19,4.523,0.268,6.511c0.457,1.99,1.429,3.893,2.915,5.716c1.484,1.82,3.528,3.61,6.131,5.369
			c2.602,1.76,5.867,3.647,9.794,5.66c6.344,3.267,12.085,6.528,17.217,9.78c5.132,3.254,9.448,6.812,12.946,10.676
			c3.498,3.865,6.057,8.185,7.678,12.953c1.62,4.772,2.064,10.241,1.332,16.408c-0.664,5.595-2.235,10.504-4.714,14.721
			c-2.48,4.221-5.692,7.741-9.635,10.56c-3.944,2.821-8.549,4.92-13.814,6.294c-5.264,1.374-11.012,1.981-17.24,1.823l-2.252,18.979
			l-16.326-1.937l2.241-18.885c-5.615-1.245-10.961-3.138-16.039-5.674c-5.079-2.537-9.458-5.845-13.14-9.926
			c-3.68-4.079-6.429-9-8.244-14.761c-1.815-5.761-2.271-12.457-1.366-20.087l29.675,3.521c-0.536,4.515-0.351,8.358,0.558,11.527
			c0.907,3.17,2.315,5.789,4.222,7.853c1.906,2.064,4.168,3.622,6.786,4.674c2.617,1.053,5.328,1.743,8.136,2.076
			c3.217,0.382,6.089,0.305,8.617-0.234c2.528-0.538,4.7-1.441,6.518-2.71c1.816-1.267,3.254-2.854,4.313-4.76
			C1952.747,535.66,1953.416,533.533,1953.695,531.178z"/>
	</g>
</g>
</svg>
